<svg width="504" height="365" viewBox="0 0 504 365" fill="none" xmlns="http://www.w3.org/2000/svg">
<g clip-path="url(#clip0_1316_682)">
<rect x="253.779" y="43.197" width="99.7924" height="99.7924" fill="#FCBD1A"/>
<path fill-rule="evenodd" clip-rule="evenodd" d="M300.831 33.8146L223.842 43.6653L236.507 142.651L335.492 129.986L322.827 31.0002L322.827 31.0002L325.642 52.9968L300.831 33.8146Z" fill="#90DF0E"/>
<path fill-rule="evenodd" clip-rule="evenodd" d="M322.827 31L300.83 33.8145L303.645 55.8112L325.641 52.9968L325.641 52.9966L300.83 33.8145L322.827 31.0001L322.827 31Z" fill="#C0FC5D"/>
<g clip-path="url(#clip1_1316_682)">
<path d="M95 68.8438C95 65.8994 97.3869 63.5125 100.331 63.5125H366.012C383.678 63.5125 398 77.8341 398 95.5007V496.594C398 514.261 383.678 528.582 366.012 528.582H100.331C97.387 528.582 95 526.195 95 523.251V68.8438Z" fill="#1E252F"/>
<g filter="url(#filter0_ii_1316_682)">
<rect x="103.456" y="63.5125" width="7.04651" height="466.479" fill="#252525" fill-opacity="0.01"/>
</g>
<path d="M186.091 130.127H193.168L200.642 148.363H200.96L208.435 130.127H215.512V157.269H209.946V139.603H209.72L202.696 157.137H198.906L191.882 139.537H191.657V157.269H186.091V130.127ZM226.211 157.269V130.127H244.499V134.859H231.949V141.326H243.559V146.057H231.949V152.538H244.552V157.269H226.211ZM271.798 130.127H277.536V147.754C277.536 149.733 277.063 151.464 276.118 152.949C275.181 154.433 273.869 155.59 272.182 156.421C270.494 157.243 268.529 157.653 266.284 157.653C264.031 157.653 262.061 157.243 260.374 156.421C258.686 155.59 257.374 154.433 256.438 152.949C255.501 151.464 255.033 149.733 255.033 147.754V130.127H260.771V147.263C260.771 148.297 260.997 149.216 261.447 150.02C261.907 150.824 262.552 151.456 263.382 151.915C264.213 152.374 265.18 152.604 266.284 152.604C267.398 152.604 268.365 152.374 269.187 151.915C270.017 151.456 270.658 150.824 271.108 150.02C271.568 149.216 271.798 148.297 271.798 147.263V130.127ZM302.952 137.933C302.846 136.864 302.391 136.034 301.587 135.442C300.783 134.85 299.692 134.554 298.314 134.554C297.377 134.554 296.586 134.686 295.941 134.951C295.297 135.208 294.802 135.566 294.457 136.025C294.121 136.484 293.954 137.006 293.954 137.589C293.936 138.075 294.038 138.499 294.258 138.861C294.488 139.223 294.802 139.537 295.199 139.802C295.597 140.058 296.056 140.283 296.578 140.478C297.099 140.663 297.655 140.822 298.247 140.955L300.686 141.538C301.87 141.803 302.957 142.157 303.946 142.598C304.936 143.04 305.793 143.583 306.517 144.228C307.242 144.873 307.803 145.633 308.2 146.508C308.607 147.383 308.814 148.385 308.823 149.516C308.814 151.177 308.39 152.617 307.551 153.837C306.72 155.047 305.519 155.988 303.946 156.659C302.382 157.322 300.496 157.653 298.287 157.653C296.096 157.653 294.188 157.318 292.562 156.646C290.945 155.975 289.682 154.981 288.772 153.664C287.871 152.339 287.398 150.7 287.354 148.748H292.907C292.968 149.658 293.229 150.417 293.689 151.027C294.157 151.628 294.78 152.083 295.557 152.392C296.343 152.692 297.231 152.843 298.221 152.843C299.193 152.843 300.037 152.701 300.752 152.419C301.477 152.136 302.038 151.743 302.435 151.239C302.833 150.735 303.032 150.157 303.032 149.503C303.032 148.893 302.851 148.381 302.488 147.966C302.135 147.55 301.614 147.197 300.925 146.905C300.244 146.614 299.409 146.349 298.42 146.11L295.464 145.368C293.176 144.811 291.369 143.941 290.044 142.757C288.719 141.573 288.061 139.979 288.069 137.973C288.061 136.33 288.498 134.894 289.381 133.666C290.274 132.438 291.497 131.479 293.052 130.79C294.607 130.101 296.374 129.756 298.353 129.756C300.368 129.756 302.126 130.101 303.628 130.79C305.139 131.479 306.314 132.438 307.153 133.666C307.993 134.894 308.426 136.316 308.452 137.933H302.952ZM166.969 184.63H161.164C161.058 183.879 160.842 183.212 160.515 182.629C160.188 182.037 159.768 181.533 159.256 181.118C158.744 180.702 158.152 180.384 157.48 180.164C156.818 179.943 156.097 179.832 155.32 179.832C153.915 179.832 152.692 180.181 151.649 180.879C150.606 181.568 149.798 182.576 149.224 183.901C148.649 185.217 148.362 186.816 148.362 188.698C148.362 190.633 148.649 192.259 149.224 193.575C149.807 194.892 150.62 195.886 151.662 196.557C152.705 197.229 153.911 197.564 155.28 197.564C156.049 197.564 156.76 197.463 157.414 197.26C158.077 197.056 158.664 196.76 159.177 196.372C159.689 195.974 160.113 195.492 160.449 194.927C160.793 194.362 161.032 193.717 161.164 192.992L166.969 193.019C166.819 194.264 166.443 195.466 165.843 196.623C165.251 197.772 164.451 198.801 163.444 199.711C162.446 200.612 161.253 201.328 159.866 201.858C158.487 202.379 156.928 202.64 155.187 202.64C152.767 202.64 150.602 202.092 148.694 200.997C146.794 199.901 145.292 198.315 144.188 196.239C143.092 194.163 142.544 191.649 142.544 188.698C142.544 185.738 143.101 183.22 144.214 181.144C145.327 179.068 146.838 177.486 148.747 176.4C150.655 175.304 152.802 174.756 155.187 174.756C156.76 174.756 158.218 174.977 159.561 175.419C160.913 175.861 162.11 176.506 163.152 177.354C164.195 178.193 165.043 179.223 165.697 180.442C166.359 181.661 166.784 183.057 166.969 184.63ZM201.997 188.698C201.997 191.658 201.436 194.176 200.314 196.252C199.201 198.329 197.681 199.914 195.755 201.01C193.838 202.097 191.682 202.64 189.287 202.64C186.875 202.64 184.711 202.092 182.794 200.997C180.876 199.901 179.361 198.315 178.248 196.239C177.135 194.163 176.578 191.649 176.578 188.698C176.578 185.738 177.135 183.22 178.248 181.144C179.361 179.068 180.876 177.486 182.794 176.4C184.711 175.304 186.875 174.756 189.287 174.756C191.682 174.756 193.838 175.304 195.755 176.4C197.681 177.486 199.201 179.068 200.314 181.144C201.436 183.22 201.997 185.738 201.997 188.698ZM196.179 188.698C196.179 186.781 195.892 185.164 195.317 183.848C194.752 182.531 193.952 181.533 192.919 180.853C191.885 180.172 190.675 179.832 189.287 179.832C187.9 179.832 186.69 180.172 185.656 180.853C184.623 181.533 183.819 182.531 183.244 183.848C182.679 185.164 182.396 186.781 182.396 188.698C182.396 190.615 182.679 192.232 183.244 193.549C183.819 194.865 184.623 195.864 185.656 196.544C186.69 197.224 187.9 197.564 189.287 197.564C190.675 197.564 191.885 197.224 192.919 196.544C193.952 195.864 194.752 194.865 195.317 193.549C195.892 192.232 196.179 190.615 196.179 188.698ZM221.84 202.269H212.219V175.127H221.92C224.65 175.127 227 175.671 228.97 176.758C230.94 177.835 232.456 179.386 233.516 181.409C234.585 183.433 235.119 185.853 235.119 188.672C235.119 191.499 234.585 193.929 233.516 195.961C232.456 197.993 230.932 199.552 228.944 200.639C226.965 201.726 224.597 202.269 221.84 202.269ZM217.957 197.352H221.602C223.298 197.352 224.725 197.052 225.882 196.451C227.049 195.841 227.923 194.901 228.506 193.628C229.098 192.347 229.394 190.695 229.394 188.672C229.394 186.666 229.098 185.027 228.506 183.755C227.923 182.483 227.053 181.546 225.896 180.945C224.738 180.345 223.311 180.044 221.615 180.044H217.957V197.352ZM251.08 175.127V202.269H245.341V175.127H251.08ZM279.769 183.901C279.584 183.256 279.323 182.686 278.988 182.191C278.652 181.688 278.241 181.263 277.755 180.919C277.278 180.566 276.73 180.296 276.112 180.111C275.502 179.925 274.826 179.832 274.084 179.832C272.697 179.832 271.478 180.177 270.426 180.866C269.384 181.555 268.571 182.558 267.988 183.874C267.405 185.182 267.113 186.781 267.113 188.672C267.113 190.562 267.4 192.17 267.975 193.496C268.549 194.821 269.362 195.833 270.413 196.531C271.464 197.22 272.706 197.564 274.137 197.564C275.436 197.564 276.545 197.335 277.463 196.875C278.391 196.407 279.098 195.749 279.584 194.901C280.079 194.052 280.326 193.05 280.326 191.892L281.492 192.064H274.495V187.744H285.852V191.163C285.852 193.549 285.349 195.599 284.342 197.313C283.334 199.018 281.947 200.334 280.18 201.262C278.413 202.181 276.39 202.64 274.111 202.64C271.566 202.64 269.331 202.079 267.405 200.957C265.479 199.826 263.977 198.223 262.899 196.146C261.83 194.061 261.295 191.587 261.295 188.725C261.295 186.525 261.613 184.563 262.249 182.841C262.894 181.109 263.796 179.642 264.953 178.441C266.11 177.239 267.458 176.325 268.995 175.697C270.532 175.07 272.198 174.756 273.991 174.756C275.529 174.756 276.96 174.982 278.285 175.432C279.61 175.874 280.786 176.501 281.81 177.314C282.844 178.127 283.688 179.094 284.342 180.217C284.995 181.33 285.415 182.558 285.601 183.901H279.769ZM321.076 188.698C321.076 191.658 320.515 194.176 319.393 196.252C318.279 198.329 316.76 199.914 314.834 201.01C312.916 202.097 310.761 202.64 308.366 202.64C305.954 202.64 303.79 202.092 301.872 200.997C299.955 199.901 298.44 198.315 297.327 196.239C296.214 194.163 295.657 191.649 295.657 188.698C295.657 185.738 296.214 183.22 297.327 181.144C298.44 179.068 299.955 177.486 301.872 176.4C303.79 175.304 305.954 174.756 308.366 174.756C310.761 174.756 312.916 175.304 314.834 176.4C316.76 177.486 318.279 179.068 319.393 181.144C320.515 183.22 321.076 185.738 321.076 188.698ZM315.258 188.698C315.258 186.781 314.971 185.164 314.396 183.848C313.831 182.531 313.031 181.533 311.998 180.853C310.964 180.172 309.753 179.832 308.366 179.832C306.979 179.832 305.769 180.172 304.735 180.853C303.701 181.533 302.897 182.531 302.323 183.848C301.758 185.164 301.475 186.781 301.475 188.698C301.475 190.615 301.758 192.232 302.323 193.549C302.897 194.865 303.701 195.864 304.735 196.544C305.769 197.224 306.979 197.564 308.366 197.564C309.753 197.564 310.964 197.224 311.998 196.544C313.031 195.864 313.831 194.865 314.396 193.549C314.971 192.232 315.258 190.615 315.258 188.698ZM346.021 182.933C345.915 181.864 345.46 181.034 344.656 180.442C343.852 179.85 342.761 179.554 341.383 179.554C340.446 179.554 339.656 179.686 339.011 179.951C338.366 180.208 337.871 180.566 337.526 181.025C337.191 181.484 337.023 182.006 337.023 182.589C337.005 183.075 337.107 183.499 337.328 183.861C337.557 184.223 337.871 184.537 338.269 184.802C338.666 185.058 339.126 185.283 339.647 185.478C340.168 185.663 340.725 185.822 341.317 185.955L343.755 186.538C344.939 186.803 346.026 187.157 347.015 187.598C348.005 188.04 348.862 188.583 349.586 189.228C350.311 189.873 350.872 190.633 351.269 191.508C351.676 192.383 351.883 193.385 351.892 194.516C351.883 196.177 351.459 197.617 350.62 198.837C349.79 200.047 348.588 200.988 347.015 201.659C345.452 202.322 343.565 202.653 341.356 202.653C339.165 202.653 337.257 202.318 335.631 201.646C334.014 200.975 332.751 199.981 331.841 198.664C330.94 197.339 330.467 195.7 330.423 193.748H335.976C336.038 194.658 336.298 195.417 336.758 196.027C337.226 196.628 337.849 197.083 338.626 197.392C339.413 197.692 340.301 197.843 341.29 197.843C342.262 197.843 343.106 197.701 343.821 197.419C344.546 197.136 345.107 196.743 345.505 196.239C345.902 195.735 346.101 195.157 346.101 194.503C346.101 193.893 345.92 193.381 345.558 192.966C345.204 192.55 344.683 192.197 343.994 191.905C343.313 191.614 342.478 191.349 341.489 191.11L338.534 190.368C336.245 189.811 334.439 188.941 333.113 187.757C331.788 186.573 331.13 184.979 331.139 182.973C331.13 181.33 331.567 179.894 332.451 178.666C333.343 177.438 334.567 176.479 336.122 175.79C337.677 175.101 339.444 174.756 341.423 174.756C343.437 174.756 345.195 175.101 346.697 175.79C348.208 176.479 349.383 177.438 350.222 178.666C351.062 179.894 351.495 181.316 351.521 182.933H346.021Z" fill="white" fill-opacity="0.49"/>
<g filter="url(#filter1_d_1316_682)">
<rect x="81.6714" y="226.12" width="339.431" height="107.516" fill="#BE9662"/>
<rect x="82.1157" y="226.564" width="338.543" height="106.628" stroke="#D8B790" stroke-width="0.888563"/>
<path d="M193.879 243.181H192.551C192.513 242.963 192.444 242.77 192.342 242.602C192.24 242.432 192.113 242.287 191.962 242.169C191.81 242.051 191.638 241.962 191.443 241.903C191.252 241.841 191.044 241.81 190.822 241.81C190.427 241.81 190.076 241.91 189.771 242.109C189.465 242.305 189.226 242.594 189.053 242.975C188.881 243.354 188.794 243.817 188.794 244.364C188.794 244.92 188.881 245.389 189.053 245.77C189.229 246.149 189.468 246.435 189.771 246.629C190.076 246.821 190.425 246.917 190.818 246.917C191.036 246.917 191.24 246.888 191.429 246.832C191.621 246.772 191.793 246.686 191.944 246.572C192.098 246.459 192.227 246.319 192.331 246.153C192.438 245.988 192.511 245.798 192.551 245.585L193.879 245.592C193.83 245.938 193.722 246.262 193.556 246.565C193.393 246.868 193.179 247.136 192.914 247.368C192.648 247.598 192.338 247.777 191.983 247.908C191.628 248.036 191.234 248.099 190.801 248.099C190.161 248.099 189.591 247.951 189.089 247.656C188.587 247.36 188.192 246.932 187.903 246.374C187.614 245.815 187.47 245.145 187.47 244.364C187.47 243.58 187.615 242.91 187.906 242.354C188.198 241.795 188.594 241.368 189.096 241.072C189.598 240.776 190.166 240.628 190.801 240.628C191.205 240.628 191.582 240.685 191.93 240.798C192.278 240.912 192.588 241.079 192.86 241.299C193.133 241.517 193.356 241.784 193.531 242.102C193.709 242.416 193.825 242.776 193.879 243.181ZM201.585 244.364C201.585 245.147 201.438 245.818 201.144 246.377C200.853 246.933 200.455 247.36 199.951 247.656C199.449 247.951 198.88 248.099 198.243 248.099C197.606 248.099 197.036 247.951 196.531 247.656C196.029 247.357 195.632 246.93 195.338 246.374C195.047 245.815 194.901 245.145 194.901 244.364C194.901 243.58 195.047 242.91 195.338 242.354C195.632 241.795 196.029 241.368 196.531 241.072C197.036 240.776 197.606 240.628 198.243 240.628C198.88 240.628 199.449 240.776 199.951 241.072C200.455 241.368 200.853 241.795 201.144 242.354C201.438 242.91 201.585 243.58 201.585 244.364ZM200.26 244.364C200.26 243.812 200.174 243.347 200.001 242.968C199.83 242.587 199.594 242.299 199.291 242.105C198.987 241.909 198.638 241.81 198.243 241.81C197.848 241.81 197.498 241.909 197.195 242.105C196.892 242.299 196.654 242.587 196.482 242.968C196.311 243.347 196.226 243.812 196.226 244.364C196.226 244.915 196.311 245.382 196.482 245.763C196.654 246.142 196.892 246.429 197.195 246.626C197.498 246.82 197.848 246.917 198.243 246.917C198.638 246.917 198.987 246.82 199.291 246.626C199.594 246.429 199.83 246.142 200.001 245.763C200.174 245.382 200.26 244.915 200.26 244.364ZM208.807 240.727V248H207.635L204.208 243.046H204.148V248H202.83V240.727H204.009L207.432 245.685H207.496V240.727H208.807ZM213.112 240.727H214.418V245.841C214.416 246.31 214.317 246.713 214.12 247.052C213.924 247.388 213.649 247.647 213.296 247.83C212.946 248.009 212.537 248.099 212.071 248.099C211.645 248.099 211.261 248.024 210.92 247.872C210.582 247.718 210.313 247.491 210.114 247.19C209.916 246.89 209.816 246.516 209.816 246.068H211.126C211.129 246.265 211.171 246.434 211.254 246.576C211.34 246.718 211.457 246.827 211.606 246.903C211.755 246.978 211.927 247.016 212.121 247.016C212.331 247.016 212.51 246.973 212.657 246.885C212.804 246.795 212.915 246.662 212.991 246.487C213.069 246.312 213.109 246.097 213.112 245.841V240.727ZM220.432 240.727H221.75V245.479C221.75 246 221.627 246.458 221.38 246.853C221.137 247.248 220.793 247.557 220.351 247.78C219.908 248 219.391 248.11 218.799 248.11C218.204 248.11 217.686 248 217.243 247.78C216.801 247.557 216.457 247.248 216.213 246.853C215.97 246.458 215.848 246 215.848 245.479V240.727H217.165V245.369C217.165 245.672 217.231 245.942 217.364 246.178C217.499 246.415 217.688 246.601 217.932 246.736C218.176 246.868 218.465 246.935 218.799 246.935C219.133 246.935 219.421 246.868 219.665 246.736C219.911 246.601 220.101 246.415 220.233 246.178C220.366 245.942 220.432 245.672 220.432 245.369V240.727ZM229.158 240.727V248H227.986L224.56 243.046H224.499V248H223.182V240.727H224.361L227.784 245.685H227.848V240.727H229.158ZM230.274 241.832V240.727H236.077V241.832H233.829V248H232.522V241.832H230.274ZM243.372 244.364C243.372 245.147 243.225 245.818 242.931 246.377C242.64 246.933 242.242 247.36 241.738 247.656C241.236 247.951 240.667 248.099 240.03 248.099C239.393 248.099 238.823 247.951 238.318 247.656C237.817 247.357 237.419 246.93 237.125 246.374C236.834 245.815 236.688 245.145 236.688 244.364C236.688 243.58 236.834 242.91 237.125 242.354C237.419 241.795 237.817 241.368 238.318 241.072C238.823 240.776 239.393 240.628 240.03 240.628C240.667 240.628 241.236 240.776 241.738 241.072C242.242 241.368 242.64 241.795 242.931 242.354C243.225 242.91 243.372 243.58 243.372 244.364ZM242.047 244.364C242.047 243.812 241.961 243.347 241.788 242.968C241.617 242.587 241.381 242.299 241.078 242.105C240.775 241.909 240.425 241.81 240.03 241.81C239.635 241.81 239.285 241.909 238.982 242.105C238.679 242.299 238.442 242.587 238.269 242.968C238.098 243.347 238.013 243.812 238.013 244.364C238.013 244.915 238.098 245.382 238.269 245.763C238.442 246.142 238.679 246.429 238.982 246.626C239.285 246.82 239.635 246.917 240.03 246.917C240.425 246.917 240.775 246.82 241.078 246.626C241.381 246.429 241.617 246.142 241.788 245.763C241.961 245.382 242.047 244.915 242.047 244.364ZM249.562 248H247.098V240.727H249.612C250.334 240.727 250.954 240.873 251.473 241.164C251.994 241.453 252.394 241.868 252.673 242.411C252.952 242.953 253.092 243.601 253.092 244.357C253.092 245.114 252.951 245.765 252.669 246.31C252.39 246.854 251.986 247.272 251.458 247.563C250.933 247.854 250.301 248 249.562 248ZM248.415 246.86H249.498C250.005 246.86 250.427 246.768 250.766 246.583C251.105 246.396 251.359 246.118 251.53 245.749C251.7 245.377 251.785 244.913 251.785 244.357C251.785 243.8 251.7 243.339 251.53 242.972C251.359 242.602 251.107 242.326 250.773 242.144C250.442 241.96 250.03 241.867 249.537 241.867H248.415V246.86ZM254.344 248V240.727H259.074V241.832H255.661V243.806H258.829V244.911H255.661V246.896H259.102V248H254.344ZM262.898 248V240.727H265.626C266.184 240.727 266.653 240.831 267.032 241.04C267.413 241.248 267.701 241.535 267.895 241.899C268.091 242.261 268.19 242.673 268.19 243.135C268.19 243.601 268.091 244.016 267.895 244.378C267.698 244.74 267.408 245.025 267.025 245.234C266.641 245.44 266.169 245.543 265.608 245.543H263.8V244.46H265.43C265.757 244.46 266.025 244.403 266.233 244.289C266.441 244.175 266.595 244.019 266.695 243.82C266.796 243.621 266.847 243.393 266.847 243.135C266.847 242.877 266.796 242.65 266.695 242.453C266.595 242.257 266.44 242.104 266.229 241.995C266.021 241.884 265.752 241.828 265.423 241.828H264.216V248H262.898ZM269.334 248V240.727H272.061C272.62 240.727 273.089 240.824 273.468 241.018C273.849 241.213 274.136 241.485 274.33 241.835C274.527 242.183 274.625 242.589 274.625 243.053C274.625 243.52 274.526 243.924 274.327 244.268C274.13 244.609 273.84 244.873 273.457 245.06C273.073 245.244 272.602 245.337 272.044 245.337H270.101V244.243H271.866C272.193 244.243 272.46 244.198 272.669 244.108C272.877 244.016 273.031 243.882 273.13 243.707C273.232 243.529 273.283 243.311 273.283 243.053C273.283 242.795 273.232 242.575 273.13 242.393C273.028 242.208 272.873 242.068 272.665 241.974C272.457 241.877 272.188 241.828 271.859 241.828H270.652V248H269.334ZM273.091 244.705L274.892 248H273.421L271.653 244.705H273.091ZM282.337 244.364C282.337 245.147 282.19 245.818 281.896 246.377C281.605 246.933 281.207 247.36 280.703 247.656C280.201 247.951 279.632 248.099 278.995 248.099C278.358 248.099 277.788 247.951 277.283 247.656C276.781 247.357 276.384 246.93 276.09 246.374C275.799 245.815 275.653 245.145 275.653 244.364C275.653 243.58 275.799 242.91 276.09 242.354C276.384 241.795 276.781 241.368 277.283 241.072C277.788 240.776 278.358 240.628 278.995 240.628C279.632 240.628 280.201 240.776 280.703 241.072C281.207 241.368 281.605 241.795 281.896 242.354C282.19 242.91 282.337 243.58 282.337 244.364ZM281.012 244.364C281.012 243.812 280.926 243.347 280.753 242.968C280.582 242.587 280.346 242.299 280.042 242.105C279.739 241.909 279.39 241.81 278.995 241.81C278.6 241.81 278.25 241.909 277.947 242.105C277.644 242.299 277.406 242.587 277.234 242.968C277.063 243.347 276.978 243.812 276.978 244.364C276.978 244.915 277.063 245.382 277.234 245.763C277.406 246.142 277.644 246.429 277.947 246.626C278.25 246.82 278.6 246.917 278.995 246.917C279.39 246.917 279.739 246.82 280.042 246.626C280.346 246.429 280.582 246.142 280.753 245.763C280.926 245.382 281.012 244.915 281.012 244.364ZM286.451 240.727H287.758V245.841C287.756 246.31 287.656 246.713 287.46 247.052C287.263 247.388 286.989 247.647 286.636 247.83C286.286 248.009 285.877 248.099 285.411 248.099C284.985 248.099 284.601 248.024 284.26 247.872C283.922 247.718 283.653 247.491 283.454 247.19C283.255 246.89 283.156 246.516 283.156 246.068H284.466C284.469 246.265 284.511 246.434 284.594 246.576C284.679 246.718 284.797 246.827 284.946 246.903C285.095 246.978 285.266 247.016 285.461 247.016C285.671 247.016 285.85 246.973 285.997 246.885C286.144 246.795 286.255 246.662 286.331 246.487C286.409 246.312 286.449 246.097 286.451 245.841V240.727ZM289.188 248V240.727H293.918V241.832H290.505V243.806H293.673V244.911H290.505V246.896H293.946V248H289.188ZM294.942 241.832V240.727H300.745V241.832H298.497V248H297.19V241.832H294.942ZM308.04 244.364C308.04 245.147 307.893 245.818 307.599 246.377C307.308 246.933 306.91 247.36 306.406 247.656C305.904 247.951 305.335 248.099 304.698 248.099C304.061 248.099 303.491 247.951 302.986 247.656C302.484 247.357 302.087 246.93 301.793 246.374C301.502 245.815 301.356 245.145 301.356 244.364C301.356 243.58 301.502 242.91 301.793 242.354C302.087 241.795 302.484 241.368 302.986 241.072C303.491 240.776 304.061 240.628 304.698 240.628C305.335 240.628 305.904 240.776 306.406 241.072C306.91 241.368 307.308 241.795 307.599 242.354C307.893 242.91 308.04 243.58 308.04 244.364ZM306.715 244.364C306.715 243.812 306.629 243.347 306.456 242.968C306.285 242.587 306.049 242.299 305.746 242.105C305.443 241.909 305.093 241.81 304.698 241.81C304.303 241.81 303.953 241.909 303.65 242.105C303.347 242.299 303.109 242.587 302.937 242.968C302.766 243.347 302.681 243.812 302.681 244.364C302.681 244.915 302.766 245.382 302.937 245.763C303.109 246.142 303.347 246.429 303.65 246.626C303.953 246.82 304.303 246.917 304.698 246.917C305.093 246.917 305.443 246.82 305.746 246.626C306.049 246.429 306.285 246.142 306.456 245.763C306.629 245.382 306.715 244.915 306.715 244.364ZM313.238 242.727C313.204 242.416 313.065 242.175 312.819 242.002C312.575 241.829 312.258 241.743 311.867 241.743C311.592 241.743 311.357 241.784 311.16 241.867C310.964 241.95 310.813 242.062 310.709 242.205C310.605 242.347 310.552 242.509 310.549 242.691C310.549 242.843 310.584 242.974 310.652 243.085C310.723 243.196 310.819 243.291 310.94 243.369C311.061 243.445 311.195 243.509 311.341 243.561C311.488 243.613 311.636 243.657 311.785 243.692L312.467 243.863C312.742 243.927 313.006 244.013 313.259 244.122C313.515 244.231 313.743 244.368 313.944 244.534C314.148 244.7 314.309 244.9 314.427 245.134C314.546 245.369 314.605 245.643 314.605 245.958C314.605 246.384 314.496 246.759 314.278 247.084C314.06 247.406 313.745 247.658 313.333 247.84C312.924 248.02 312.428 248.11 311.846 248.11C311.28 248.11 310.789 248.022 310.372 247.847C309.958 247.672 309.633 247.416 309.399 247.08C309.167 246.744 309.041 246.335 309.022 245.852H310.319C310.338 246.105 310.416 246.316 310.553 246.484C310.69 246.652 310.869 246.777 311.089 246.86C311.312 246.943 311.56 246.984 311.835 246.984C312.121 246.984 312.372 246.942 312.588 246.857C312.806 246.769 312.976 246.648 313.099 246.494C313.222 246.338 313.285 246.156 313.287 245.947C313.285 245.758 313.229 245.602 313.12 245.479C313.012 245.353 312.859 245.249 312.662 245.166C312.468 245.081 312.241 245.005 311.981 244.939L311.153 244.726C310.554 244.572 310.081 244.339 309.733 244.026C309.387 243.711 309.214 243.294 309.214 242.773C309.214 242.344 309.33 241.969 309.562 241.647C309.797 241.325 310.115 241.075 310.517 240.898C310.92 240.718 311.376 240.628 311.885 240.628C312.401 240.628 312.853 240.718 313.241 240.898C313.632 241.075 313.938 241.323 314.161 241.64C314.383 241.955 314.498 242.317 314.505 242.727H313.238Z" fill="black" fill-opacity="0.71"/>
<path d="M174.184 273H167.468V255.545H174.116C175.911 255.545 177.463 255.895 178.769 256.594C180.082 257.287 181.093 258.287 181.803 259.594C182.519 260.895 182.877 262.455 182.877 264.273C182.877 266.091 182.522 267.653 181.812 268.96C181.102 270.261 180.096 271.261 178.795 271.96C177.494 272.653 175.957 273 174.184 273ZM172.207 268.977H174.014C174.877 268.977 175.613 268.838 176.221 268.56C176.835 268.281 177.301 267.801 177.619 267.119C177.943 266.437 178.105 265.489 178.105 264.273C178.105 263.057 177.94 262.108 177.61 261.426C177.286 260.744 176.809 260.264 176.178 259.986C175.553 259.707 174.786 259.568 173.877 259.568H172.207V268.977ZM185.07 273V255.545H197.649V259.364H189.808V262.364H197.002V266.182H189.808V269.182H197.615V273H185.07ZM204.772 255.545L208.352 267.852H208.488L212.068 255.545H217.42L211.659 273H205.181L199.42 255.545H204.772ZM229.576 273.273C228.326 273.273 227.249 273.051 226.345 272.608C225.442 272.165 224.749 271.571 224.266 270.827C223.783 270.082 223.541 269.261 223.541 268.364C223.541 267.71 223.666 267.134 223.916 266.634C224.166 266.128 224.516 265.665 224.965 265.244C225.414 264.824 225.939 264.409 226.541 264L230.496 261.545C230.894 261.295 231.164 261.037 231.306 260.77C231.448 260.497 231.519 260.256 231.519 260.045C231.519 259.767 231.416 259.52 231.212 259.304C231.007 259.088 230.689 258.983 230.257 258.989C229.99 258.989 229.76 259.04 229.567 259.142C229.374 259.239 229.223 259.375 229.115 259.551C229.013 259.727 228.962 259.937 228.962 260.182C228.962 260.517 229.058 260.861 229.252 261.213C229.445 261.56 229.709 261.935 230.044 262.338C230.379 262.741 230.757 263.193 231.178 263.693L239.632 273H234.928L227.837 265.5C227.49 265.131 227.107 264.679 226.686 264.145C226.266 263.605 225.902 262.997 225.595 262.321C225.294 261.645 225.144 260.909 225.144 260.114C225.144 259.227 225.357 258.418 225.783 257.685C226.209 256.952 226.806 256.366 227.573 255.929C228.34 255.491 229.235 255.273 230.257 255.273C231.235 255.273 232.076 255.474 232.78 255.878C233.49 256.281 234.036 256.818 234.416 257.489C234.803 258.159 234.996 258.898 234.996 259.705C234.996 260.517 234.794 261.276 234.391 261.98C233.993 262.685 233.422 263.301 232.678 263.83L229.064 266.386C228.786 266.58 228.544 266.801 228.34 267.051C228.141 267.301 228.041 267.625 228.041 268.023C228.041 268.352 228.118 268.634 228.272 268.866C228.425 269.099 228.641 269.278 228.919 269.403C229.203 269.528 229.536 269.591 229.916 269.591C230.496 269.591 231.076 269.452 231.655 269.173C232.24 268.889 232.774 268.494 233.257 267.989C233.74 267.477 234.127 266.875 234.416 266.182C234.712 265.483 234.86 264.722 234.86 263.898H238.576C238.576 264.909 238.47 265.884 238.26 266.821C238.05 267.759 237.712 268.616 237.246 269.395C236.78 270.173 236.166 270.83 235.405 271.364C235.166 271.483 234.933 271.597 234.706 271.705C234.479 271.812 234.246 271.926 234.007 272.045C233.308 272.494 232.578 272.812 231.817 273C231.056 273.182 230.308 273.273 229.576 273.273ZM252.114 273H245.398V255.545H252.046C253.841 255.545 255.392 255.895 256.699 256.594C258.012 257.287 259.023 258.287 259.733 259.594C260.449 260.895 260.807 262.455 260.807 264.273C260.807 266.091 260.452 267.653 259.742 268.96C259.031 270.261 258.026 271.261 256.725 271.96C255.424 272.653 253.887 273 252.114 273ZM250.137 268.977H251.943C252.807 268.977 253.543 268.838 254.151 268.56C254.764 268.281 255.23 267.801 255.549 267.119C255.872 266.437 256.034 265.489 256.034 264.273C256.034 263.057 255.87 262.108 255.54 261.426C255.216 260.744 254.739 260.264 254.108 259.986C253.483 259.707 252.716 259.568 251.807 259.568H250.137V268.977ZM263 273V255.545H275.579V259.364H267.738V262.364H274.931V266.182H267.738V269.182H275.545V273H263ZM287.338 261C287.293 260.432 287.08 259.989 286.699 259.67C286.324 259.352 285.753 259.193 284.986 259.193C284.497 259.193 284.097 259.253 283.784 259.372C283.477 259.486 283.25 259.642 283.102 259.841C282.955 260.04 282.878 260.267 282.872 260.523C282.861 260.733 282.898 260.923 282.983 261.094C283.074 261.259 283.216 261.409 283.409 261.545C283.602 261.676 283.85 261.795 284.151 261.903C284.452 262.011 284.81 262.108 285.225 262.193L286.656 262.5C287.622 262.705 288.449 262.974 289.137 263.31C289.824 263.645 290.387 264.04 290.824 264.494C291.262 264.943 291.583 265.449 291.787 266.011C291.997 266.574 292.105 267.187 292.111 267.852C292.105 269 291.818 269.972 291.25 270.767C290.682 271.562 289.87 272.168 288.813 272.582C287.762 272.997 286.497 273.205 285.02 273.205C283.503 273.205 282.179 272.98 281.049 272.531C279.924 272.082 279.049 271.392 278.424 270.46C277.804 269.523 277.492 268.324 277.486 266.864H281.986C282.014 267.398 282.148 267.847 282.387 268.21C282.625 268.574 282.96 268.849 283.392 269.037C283.83 269.224 284.35 269.318 284.952 269.318C285.458 269.318 285.881 269.256 286.222 269.131C286.563 269.006 286.821 268.832 286.997 268.611C287.174 268.389 287.264 268.136 287.27 267.852C287.264 267.585 287.176 267.352 287.006 267.153C286.841 266.949 286.568 266.767 286.188 266.608C285.807 266.443 285.293 266.29 284.645 266.148L282.906 265.773C281.361 265.437 280.142 264.878 279.25 264.094C278.364 263.304 277.924 262.227 277.929 260.864C277.924 259.756 278.219 258.787 278.816 257.957C279.418 257.122 280.25 256.472 281.313 256.006C282.381 255.54 283.605 255.307 284.986 255.307C286.395 255.307 287.614 255.543 288.642 256.014C289.671 256.486 290.463 257.151 291.02 258.009C291.583 258.861 291.867 259.858 291.872 261H287.338ZM298.652 255.545V273H293.914V255.545H298.652ZM312.233 261.307C312.159 261.006 312.043 260.741 311.884 260.514C311.725 260.281 311.526 260.085 311.287 259.926C311.054 259.761 310.781 259.639 310.469 259.56C310.162 259.474 309.824 259.432 309.455 259.432C308.659 259.432 307.98 259.622 307.418 260.003C306.861 260.384 306.435 260.932 306.139 261.648C305.85 262.364 305.705 263.227 305.705 264.239C305.705 265.261 305.844 266.136 306.122 266.864C306.401 267.591 306.816 268.148 307.367 268.534C307.918 268.92 308.602 269.114 309.421 269.114C310.142 269.114 310.742 269.009 311.219 268.798C311.702 268.588 312.063 268.29 312.301 267.903C312.54 267.517 312.659 267.062 312.659 266.54L313.477 266.625H309.489V263.25H317.227V265.67C317.227 267.261 316.889 268.622 316.213 269.753C315.543 270.878 314.617 271.741 313.435 272.344C312.259 272.94 310.909 273.239 309.387 273.239C307.688 273.239 306.196 272.878 304.912 272.156C303.628 271.435 302.625 270.406 301.904 269.071C301.188 267.736 300.83 266.148 300.83 264.307C300.83 262.864 301.049 261.585 301.486 260.472C301.929 259.358 302.543 258.418 303.327 257.651C304.111 256.878 305.017 256.295 306.046 255.903C307.074 255.506 308.176 255.307 309.352 255.307C310.387 255.307 311.347 255.455 312.233 255.75C313.125 256.04 313.912 256.455 314.594 256.994C315.281 257.528 315.835 258.162 316.256 258.895C316.676 259.628 316.932 260.432 317.023 261.307H312.233ZM334.539 255.545V273H330.585L324.278 263.83H324.176V273H319.437V255.545H323.46L329.664 264.682H329.801V255.545H334.539Z" fill="black" fill-opacity="0.71"/>
<path d="M237.468 284.05C237.409 283.858 237.327 283.686 237.223 283.535C237.121 283.381 236.998 283.25 236.854 283.141C236.712 283.032 236.548 282.95 236.364 282.896C236.179 282.839 235.978 282.81 235.76 282.81C235.369 282.81 235.021 282.909 234.716 283.105C234.41 283.302 234.17 283.59 233.995 283.972C233.822 284.35 233.736 284.812 233.736 285.357C233.736 285.906 233.822 286.371 233.995 286.752C234.168 287.133 234.408 287.423 234.716 287.622C235.024 287.819 235.381 287.917 235.788 287.917C236.158 287.917 236.477 287.846 236.747 287.704C237.019 287.562 237.229 287.361 237.376 287.1C237.522 286.837 237.596 286.53 237.596 286.177L237.894 286.223H235.92V285.193H238.871V286.067C238.871 286.689 238.738 287.228 238.473 287.683C238.208 288.137 237.843 288.487 237.379 288.734C236.915 288.978 236.382 289.099 235.781 289.099C235.111 289.099 234.523 288.949 234.016 288.648C233.512 288.345 233.118 287.916 232.834 287.359C232.552 286.801 232.411 286.138 232.411 285.371C232.411 284.784 232.494 284.259 232.66 283.798C232.828 283.336 233.062 282.944 233.363 282.622C233.663 282.298 234.016 282.052 234.421 281.884C234.826 281.713 235.266 281.628 235.742 281.628C236.145 281.628 236.52 281.687 236.868 281.805C237.216 281.921 237.525 282.087 237.795 282.303C238.067 282.518 238.291 282.774 238.466 283.07C238.641 283.366 238.756 283.692 238.81 284.05H237.468ZM241.462 281.727V289H240.145V281.727H241.462ZM242.569 282.832V281.727H248.372V282.832H246.124V289H244.817V282.832H242.569ZM249.49 289V281.727H250.808V284.806H254.178V281.727H255.499V289H254.178V285.911H250.808V289H249.49ZM261.516 281.727H262.834V286.479C262.834 287 262.711 287.458 262.464 287.853C262.221 288.248 261.877 288.557 261.435 288.78C260.992 289 260.475 289.11 259.883 289.11C259.288 289.11 258.77 289 258.327 288.78C257.885 288.557 257.541 288.248 257.297 287.853C257.054 287.458 256.932 287 256.932 286.479V281.727H258.249V286.369C258.249 286.672 258.315 286.942 258.448 287.178C258.583 287.415 258.772 287.601 259.016 287.736C259.26 287.868 259.549 287.935 259.883 287.935C260.216 287.935 260.505 287.868 260.749 287.736C260.995 287.601 261.185 287.415 261.317 287.178C261.45 286.942 261.516 286.672 261.516 286.369V281.727ZM264.266 289V281.727H267.05C267.575 281.727 268.012 281.81 268.36 281.976C268.711 282.139 268.972 282.363 269.145 282.647C269.32 282.931 269.408 283.253 269.408 283.613C269.408 283.909 269.351 284.162 269.237 284.373C269.124 284.581 268.971 284.75 268.779 284.881C268.587 285.011 268.373 285.104 268.136 285.161V285.232C268.394 285.246 268.642 285.326 268.879 285.47C269.118 285.612 269.313 285.813 269.465 286.074C269.616 286.334 269.692 286.649 269.692 287.018C269.692 287.395 269.601 287.733 269.418 288.034C269.236 288.332 268.961 288.568 268.595 288.741C268.228 288.914 267.766 289 267.21 289H264.266ZM265.583 287.899H267C267.478 287.899 267.823 287.808 268.033 287.626C268.246 287.441 268.353 287.204 268.353 286.915C268.353 286.7 268.3 286.506 268.193 286.333C268.087 286.158 267.935 286.021 267.739 285.921C267.542 285.819 267.308 285.768 267.036 285.768H265.583V287.899ZM265.583 284.82H266.886C267.114 284.82 267.318 284.779 267.501 284.696C267.683 284.611 267.826 284.491 267.93 284.337C268.037 284.181 268.09 283.996 268.09 283.783C268.09 283.502 267.991 283.27 267.792 283.087C267.595 282.905 267.303 282.814 266.915 282.814H265.583V284.82Z" fill="black" fill-opacity="0.71"/>
<path d="M113.659 298.982L390.002 298.982" stroke="black" stroke-width="0.888563" stroke-linecap="round"/>
<path d="M345.308 237.309H376C379.143 237.309 381.691 239.857 381.691 243V279C381.691 282.143 379.143 284.691 376 284.691H345.308V237.309Z" stroke="black" stroke-width="0.617284"/>
<circle cx="351" cy="243.5" r="0.5" fill="#0D0D0D"/>
<circle cx="356" cy="243.5" r="0.5" fill="#0D0D0D"/>
<circle cx="361" cy="243.5" r="0.5" fill="#0D0D0D"/>
<circle cx="366" cy="243.5" r="0.5" fill="#0D0D0D"/>
<circle cx="371" cy="243.5" r="0.5" fill="#0D0D0D"/>
<circle cx="376" cy="243.5" r="0.5" fill="#0D0D0D"/>
<circle cx="351" cy="248.5" r="0.5" fill="#0D0D0D"/>
<circle cx="356" cy="248.5" r="0.5" fill="#0D0D0D"/>
<circle cx="361" cy="248.5" r="0.5" fill="#0D0D0D"/>
<circle cx="366" cy="248.5" r="0.5" fill="#0D0D0D"/>
<circle cx="371" cy="248.5" r="0.5" fill="#0D0D0D"/>
<circle cx="376" cy="248.5" r="0.5" fill="#0D0D0D"/>
<circle cx="351" cy="253.5" r="0.5" fill="#0D0D0D"/>
<circle cx="356" cy="253.5" r="0.5" fill="#0D0D0D"/>
<circle cx="361" cy="253.5" r="0.5" fill="#0D0D0D"/>
<circle cx="366" cy="253.5" r="0.5" fill="#0D0D0D"/>
<circle cx="371" cy="253.5" r="0.5" fill="#0D0D0D"/>
<circle cx="376" cy="253.5" r="0.5" fill="#0D0D0D"/>
<circle cx="351" cy="258.5" r="0.5" fill="#0D0D0D"/>
<circle cx="356" cy="258.5" r="0.5" fill="#0D0D0D"/>
<circle cx="361" cy="258.5" r="0.5" fill="#0D0D0D"/>
<circle cx="366" cy="258.5" r="0.5" fill="#0D0D0D"/>
<circle cx="371" cy="258.5" r="0.5" fill="#0D0D0D"/>
<circle cx="376" cy="258.5" r="0.5" fill="#0D0D0D"/>
<circle cx="351" cy="263.5" r="0.5" fill="#0D0D0D"/>
<circle cx="356" cy="263.5" r="0.5" fill="#0D0D0D"/>
<circle cx="361" cy="263.5" r="0.5" fill="#0D0D0D"/>
<circle cx="366" cy="263.5" r="0.5" fill="#0D0D0D"/>
<circle cx="371" cy="263.5" r="0.5" fill="#0D0D0D"/>
<circle cx="376" cy="263.5" r="0.5" fill="#0D0D0D"/>
<circle cx="351" cy="268.5" r="0.5" fill="#0D0D0D"/>
<circle cx="356" cy="268.5" r="0.5" fill="#0D0D0D"/>
<circle cx="361" cy="268.5" r="0.5" fill="#0D0D0D"/>
<circle cx="366" cy="268.5" r="0.5" fill="#0D0D0D"/>
<circle cx="371" cy="268.5" r="0.5" fill="#0D0D0D"/>
<circle cx="376" cy="268.5" r="0.5" fill="#0D0D0D"/>
<circle cx="351" cy="273.5" r="0.5" fill="#0D0D0D"/>
<circle cx="356" cy="273.5" r="0.5" fill="#0D0D0D"/>
<circle cx="361" cy="273.5" r="0.5" fill="#0D0D0D"/>
<circle cx="366" cy="273.5" r="0.5" fill="#0D0D0D"/>
<circle cx="371" cy="273.5" r="0.5" fill="#0D0D0D"/>
<circle cx="376" cy="273.5" r="0.5" fill="#0D0D0D"/>
<circle cx="351" cy="278.5" r="0.5" fill="#0D0D0D"/>
<circle cx="356" cy="278.5" r="0.5" fill="#0D0D0D"/>
<circle cx="361" cy="278.5" r="0.5" fill="#0D0D0D"/>
<circle cx="366" cy="278.5" r="0.5" fill="#0D0D0D"/>
<circle cx="371" cy="278.5" r="0.5" fill="#0D0D0D"/>
<circle cx="376" cy="278.5" r="0.5" fill="#0D0D0D"/>
</g>
</g>
</g>
<defs>
<filter id="filter0_ii_1316_682" x="102.047" y="63.5125" width="8.45569" height="466.479" filterUnits="userSpaceOnUse" color-interpolation-filters="sRGB">
<feFlood flood-opacity="0" result="BackgroundImageFix"/>
<feBlend mode="normal" in="SourceGraphic" in2="BackgroundImageFix" result="shape"/>
<feColorMatrix in="SourceAlpha" type="matrix" values="0 0 0 0 0 0 0 0 0 0 0 0 0 0 0 0 0 0 127 0" result="hardAlpha"/>
<feOffset dx="-1.4093"/>
<feGaussianBlur stdDeviation="2.11395"/>
<feComposite in2="hardAlpha" operator="arithmetic" k2="-1" k3="1"/>
<feColorMatrix type="matrix" values="0 0 0 0 0 0 0 0 0 0 0 0 0 0 0 0 0 0 0.18 0"/>
<feBlend mode="normal" in2="shape" result="effect1_innerShadow_1316_682"/>
<feColorMatrix in="SourceAlpha" type="matrix" values="0 0 0 0 0 0 0 0 0 0 0 0 0 0 0 0 0 0 127 0" result="hardAlpha"/>
<feOffset dx="-1.4093"/>
<feGaussianBlur stdDeviation="2.11395"/>
<feComposite in2="hardAlpha" operator="arithmetic" k2="-1" k3="1"/>
<feColorMatrix type="matrix" values="0 0 0 0 0 0 0 0 0 0 0 0 0 0 0 0 0 0 0.18 0"/>
<feBlend mode="normal" in2="effect1_innerShadow_1316_682" result="effect2_innerShadow_1316_682"/>
</filter>
<filter id="filter1_d_1316_682" x="76.34" y="216.345" width="350.094" height="118.179" filterUnits="userSpaceOnUse" color-interpolation-filters="sRGB">
<feFlood flood-opacity="0" result="BackgroundImageFix"/>
<feColorMatrix in="SourceAlpha" type="matrix" values="0 0 0 0 0 0 0 0 0 0 0 0 0 0 0 0 0 0 127 0" result="hardAlpha"/>
<feOffset dy="-4.44282"/>
<feGaussianBlur stdDeviation="2.66569"/>
<feComposite in2="hardAlpha" operator="out"/>
<feColorMatrix type="matrix" values="0 0 0 0 0.00416667 0 0 0 0 0.00416667 0 0 0 0 0.00416667 0 0 0 0.25 0"/>
<feBlend mode="normal" in2="BackgroundImageFix" result="effect1_dropShadow_1316_682"/>
<feBlend mode="normal" in="SourceGraphic" in2="effect1_dropShadow_1316_682" result="shape"/>
</filter>
<clipPath id="clip0_1316_682">
<rect width="504" height="365" fill="white"/>
</clipPath>
<clipPath id="clip1_1316_682">
<path d="M95 68.8438C95 65.8994 97.3869 63.5125 100.331 63.5125H366.012C383.678 63.5125 398 77.8341 398 95.5007V496.594C398 514.261 383.678 528.582 366.012 528.582H100.331C97.387 528.582 95 526.195 95 523.251V68.8438Z" fill="white"/>
</clipPath>
</defs>
</svg>
