<svg width="504" height="365" viewBox="0 0 504 365" fill="none" xmlns="http://www.w3.org/2000/svg">
<g clip-path="url(#clip0_1323_3472)">
<rect x="253.779" y="43.197" width="99.7924" height="99.7924" fill="#FCBD1A"/>
<path fill-rule="evenodd" clip-rule="evenodd" d="M300.831 33.8146L223.842 43.6653L236.507 142.651L335.492 129.986L322.827 31.0002L322.827 31.0002L325.642 52.9968L300.831 33.8146Z" fill="#90DF0E"/>
<path fill-rule="evenodd" clip-rule="evenodd" d="M322.827 31L300.83 33.8145L303.645 55.8112L325.641 52.9968L325.641 52.9966L300.83 33.8145L322.827 31.0001L322.827 31Z" fill="#C0FC5D"/>
<g clip-path="url(#clip1_1323_3472)">
<path d="M95 68.8438C95 65.8994 97.3869 63.5125 100.331 63.5125H366.012C383.678 63.5125 398 77.8341 398 95.5007V496.594C398 514.261 383.678 528.582 366.012 528.582H100.331C97.387 528.582 95 526.195 95 523.251V68.8438Z" fill="#1E252F"/>
<g filter="url(#filter0_ii_1323_3472)">
<rect x="103.456" y="63.5125" width="7.04651" height="466.479" fill="#252525" fill-opacity="0.01"/>
</g>
<path d="M199.458 157.269H189.836V130.127H199.537C202.268 130.127 204.618 130.671 206.588 131.758C208.558 132.835 210.073 134.386 211.134 136.409C212.203 138.433 212.737 140.853 212.737 143.672C212.737 146.499 212.203 148.929 211.134 150.961C210.073 152.993 208.549 154.552 206.561 155.639C204.582 156.726 202.215 157.269 199.458 157.269ZM195.575 152.352H199.219C200.916 152.352 202.343 152.052 203.5 151.451C204.666 150.841 205.541 149.901 206.124 148.628C206.716 147.347 207.012 145.695 207.012 143.672C207.012 141.666 206.716 140.027 206.124 138.755C205.541 137.483 204.671 136.546 203.513 135.945C202.356 135.345 200.929 135.044 199.233 135.044H195.575V152.352ZM222.959 157.269V130.127H241.248V134.859H228.698V141.326H240.307V146.057H228.698V152.538H241.301V157.269H222.959ZM266.505 137.933C266.399 136.864 265.944 136.034 265.14 135.442C264.336 134.85 263.245 134.554 261.867 134.554C260.93 134.554 260.139 134.686 259.494 134.951C258.849 135.208 258.355 135.566 258.01 136.025C257.674 136.484 257.506 137.006 257.506 137.589C257.489 138.075 257.59 138.499 257.811 138.861C258.041 139.223 258.355 139.537 258.752 139.802C259.15 140.058 259.609 140.283 260.13 140.478C260.652 140.663 261.208 140.822 261.8 140.955L264.239 141.538C265.423 141.803 266.509 142.157 267.499 142.598C268.489 143.04 269.346 143.583 270.07 144.228C270.795 144.873 271.356 145.633 271.753 146.508C272.16 147.383 272.367 148.385 272.376 149.516C272.367 151.177 271.943 152.617 271.104 153.837C270.273 155.047 269.072 155.988 267.499 156.659C265.935 157.322 264.049 157.653 261.84 157.653C259.649 157.653 257.741 157.318 256.115 156.646C254.498 155.975 253.235 154.981 252.325 153.664C251.423 152.339 250.951 150.7 250.907 148.748H256.459C256.521 149.658 256.782 150.417 257.241 151.027C257.71 151.628 258.333 152.083 259.11 152.392C259.896 152.692 260.784 152.843 261.774 152.843C262.746 152.843 263.589 152.701 264.305 152.419C265.03 152.136 265.591 151.743 265.988 151.239C266.386 150.735 266.585 150.157 266.585 149.503C266.585 148.893 266.403 148.381 266.041 147.966C265.688 147.55 265.167 147.197 264.477 146.905C263.797 146.614 262.962 146.349 261.973 146.11L259.017 145.368C256.729 144.811 254.922 143.941 253.597 142.757C252.272 141.573 251.613 139.979 251.622 137.973C251.613 136.33 252.051 134.894 252.934 133.666C253.827 132.438 255.05 131.479 256.605 130.79C258.16 130.101 259.927 129.756 261.906 129.756C263.921 129.756 265.679 130.101 267.181 130.79C268.692 131.479 269.867 132.438 270.706 133.666C271.545 134.894 271.978 136.316 272.005 137.933H266.505ZM282.207 157.269V130.127H287.945V142.095H288.303L298.07 130.127H304.949L294.877 142.28L305.068 157.269H298.203L290.768 146.11L287.945 149.556V157.269H282.207ZM195.831 175.127V202.269H190.875L179.067 185.186H178.868V202.269H173.129V175.127H178.165L189.881 192.197H190.119V175.127H195.831ZM231.485 188.698C231.485 191.658 230.924 194.176 229.802 196.252C228.689 198.329 227.169 199.914 225.243 201.01C223.326 202.097 221.17 202.64 218.776 202.64C216.364 202.64 214.199 202.092 212.282 200.997C210.365 199.901 208.85 198.315 207.736 196.239C206.623 194.163 206.066 191.649 206.066 188.698C206.066 185.738 206.623 183.22 207.736 181.144C208.85 179.068 210.365 177.486 212.282 176.4C214.199 175.304 216.364 174.756 218.776 174.756C221.17 174.756 223.326 175.304 225.243 176.4C227.169 177.486 228.689 179.068 229.802 181.144C230.924 183.22 231.485 185.738 231.485 188.698ZM225.667 188.698C225.667 186.781 225.38 185.164 224.806 183.848C224.24 182.531 223.441 181.533 222.407 180.853C221.373 180.172 220.163 179.832 218.776 179.832C217.389 179.832 216.178 180.172 215.145 180.853C214.111 181.533 213.307 182.531 212.733 183.848C212.167 185.164 211.884 186.781 211.884 188.698C211.884 190.615 212.167 192.232 212.733 193.549C213.307 194.865 214.111 195.864 215.145 196.544C216.178 197.224 217.389 197.564 218.776 197.564C220.163 197.564 221.373 197.224 222.407 196.544C223.441 195.864 224.24 194.865 224.806 193.549C225.38 192.232 225.667 190.615 225.667 188.698ZM239.434 179.859V175.127H261.725V179.859H253.416V202.269H247.744V179.859H239.434ZM271.368 202.269V175.127H289.656V179.859H277.106V186.326H288.715V191.057H277.106V197.538H289.709V202.269H271.368ZM314.913 182.933C314.807 181.864 314.352 181.034 313.548 180.442C312.744 179.85 311.653 179.554 310.275 179.554C309.338 179.554 308.548 179.686 307.903 179.951C307.258 180.208 306.763 180.566 306.418 181.025C306.083 181.484 305.915 182.006 305.915 182.589C305.897 183.075 305.999 183.499 306.22 183.861C306.449 184.223 306.763 184.537 307.161 184.802C307.558 185.058 308.018 185.283 308.539 185.478C309.06 185.663 309.617 185.822 310.209 185.955L312.647 186.538C313.831 186.803 314.918 187.157 315.907 187.598C316.897 188.04 317.754 188.583 318.478 189.228C319.203 189.873 319.764 190.633 320.162 191.508C320.568 192.383 320.776 193.385 320.784 194.516C320.776 196.177 320.351 197.617 319.512 198.837C318.682 200.047 317.48 200.988 315.907 201.659C314.344 202.322 312.457 202.653 310.248 202.653C308.057 202.653 306.149 202.318 304.523 201.646C302.906 200.975 301.643 199.981 300.733 198.664C299.832 197.339 299.359 195.7 299.315 193.748H304.868C304.93 194.658 305.19 195.417 305.65 196.027C306.118 196.628 306.741 197.083 307.518 197.392C308.305 197.692 309.193 197.843 310.182 197.843C311.154 197.843 311.998 197.701 312.713 197.419C313.438 197.136 313.999 196.743 314.397 196.239C314.794 195.735 314.993 195.157 314.993 194.503C314.993 193.893 314.812 193.381 314.45 192.966C314.096 192.55 313.575 192.197 312.886 191.905C312.205 191.614 311.371 191.349 310.381 191.11L307.426 190.368C305.137 189.811 303.331 188.941 302.005 187.757C300.68 186.573 300.022 184.979 300.031 182.973C300.022 181.33 300.459 179.894 301.343 178.666C302.235 177.438 303.459 176.479 305.014 175.79C306.569 175.101 308.336 174.756 310.315 174.756C312.329 174.756 314.087 175.101 315.589 175.79C317.1 176.479 318.275 177.438 319.115 178.666C319.954 179.894 320.387 181.316 320.413 182.933H314.913Z" fill="white" fill-opacity="0.49"/>
<g filter="url(#filter1_d_1323_3472)">
<rect x="81.6714" y="226.12" width="339.431" height="107.516" fill="#BE9662"/>
<rect x="82.1157" y="226.564" width="338.543" height="106.628" stroke="#D8B790" stroke-width="0.888563"/>
<path d="M190.342 242.727C190.309 242.416 190.169 242.175 189.923 242.002C189.679 241.829 189.362 241.743 188.971 241.743C188.697 241.743 188.461 241.784 188.265 241.867C188.068 241.95 187.918 242.062 187.814 242.205C187.71 242.347 187.656 242.509 187.654 242.691C187.654 242.843 187.688 242.974 187.757 243.085C187.828 243.196 187.924 243.291 188.045 243.369C188.165 243.445 188.299 243.509 188.446 243.561C188.593 243.613 188.741 243.657 188.89 243.692L189.572 243.863C189.846 243.927 190.11 244.013 190.363 244.122C190.619 244.231 190.848 244.368 191.049 244.534C191.252 244.7 191.413 244.9 191.532 245.134C191.65 245.369 191.709 245.643 191.709 245.958C191.709 246.384 191.6 246.759 191.383 247.084C191.165 247.406 190.85 247.658 190.438 247.84C190.028 248.02 189.532 248.11 188.95 248.11C188.384 248.11 187.893 248.022 187.476 247.847C187.062 247.672 186.738 247.416 186.503 247.08C186.271 246.744 186.146 246.335 186.127 245.852H187.423C187.442 246.105 187.52 246.316 187.657 246.484C187.795 246.652 187.973 246.777 188.194 246.86C188.416 246.943 188.665 246.984 188.939 246.984C189.226 246.984 189.477 246.942 189.692 246.857C189.91 246.769 190.081 246.648 190.204 246.494C190.327 246.338 190.389 246.156 190.392 245.947C190.389 245.758 190.334 245.602 190.225 245.479C190.116 245.353 189.963 245.249 189.767 245.166C189.573 245.081 189.345 245.005 189.085 244.939L188.258 244.726C187.659 244.572 187.185 244.339 186.837 244.026C186.491 243.711 186.319 243.294 186.319 242.773C186.319 242.344 186.435 241.969 186.667 241.647C186.901 241.325 187.219 241.075 187.622 240.898C188.024 240.718 188.48 240.628 188.989 240.628C189.505 240.628 189.957 240.718 190.346 240.898C190.736 241.075 191.043 241.323 191.265 241.64C191.488 241.955 191.603 242.317 191.61 242.727H190.342ZM192.884 248V240.727H197.614V241.832H194.201V243.806H197.369V244.911H194.201V246.896H197.642V248H192.884ZM198.638 241.832V240.727H204.441V241.832H202.193V248H200.886V241.832H198.638ZM214.539 244.364C214.539 245.147 214.392 245.818 214.098 246.377C213.807 246.933 213.409 247.36 212.905 247.656C212.403 247.951 211.834 248.099 211.197 248.099C210.56 248.099 209.99 247.951 209.485 247.656C208.984 247.357 208.586 246.93 208.292 246.374C208.001 245.815 207.855 245.145 207.855 244.364C207.855 243.58 208.001 242.91 208.292 242.354C208.586 241.795 208.984 241.368 209.485 241.072C209.99 240.776 210.56 240.628 211.197 240.628C211.834 240.628 212.403 240.776 212.905 241.072C213.409 241.368 213.807 241.795 214.098 242.354C214.392 242.91 214.539 243.58 214.539 244.364ZM213.214 244.364C213.214 243.812 213.128 243.347 212.955 242.968C212.784 242.587 212.548 242.299 212.245 242.105C211.942 241.909 211.592 241.81 211.197 241.81C210.802 241.81 210.452 241.909 210.149 242.105C209.846 242.299 209.609 242.587 209.436 242.968C209.265 243.347 209.18 243.812 209.18 244.364C209.18 244.915 209.265 245.382 209.436 245.763C209.609 246.142 209.846 246.429 210.149 246.626C210.452 246.82 210.802 246.917 211.197 246.917C211.592 246.917 211.942 246.82 212.245 246.626C212.548 246.429 212.784 246.142 212.955 245.763C213.128 245.382 213.214 244.915 213.214 244.364ZM215.784 248V240.727H220.443V241.832H217.102V243.806H220.124V244.911H217.102V248H215.784ZM223.804 241.832V240.727H229.607V241.832H227.359V248H226.052V241.832H223.804ZM232.256 248L230.204 240.727H231.621L232.931 246.072H232.998L234.398 240.727H235.687L237.089 246.075H237.153L238.464 240.727H239.88L237.828 248H236.528L235.072 242.897H235.015L233.556 248H232.256ZM246.902 244.364C246.902 245.147 246.755 245.818 246.462 246.377C246.17 246.933 245.773 247.36 245.268 247.656C244.767 247.951 244.197 248.099 243.56 248.099C242.923 248.099 242.353 247.951 241.849 247.656C241.347 247.357 240.949 246.93 240.655 246.374C240.364 245.815 240.219 245.145 240.219 244.364C240.219 243.58 240.364 242.91 240.655 242.354C240.949 241.795 241.347 241.368 241.849 241.072C242.353 240.776 242.923 240.628 243.56 240.628C244.197 240.628 244.767 240.776 245.268 241.072C245.773 241.368 246.17 241.795 246.462 242.354C246.755 242.91 246.902 243.58 246.902 244.364ZM245.577 244.364C245.577 243.812 245.491 243.347 245.318 242.968C245.148 242.587 244.911 242.299 244.608 242.105C244.305 241.909 243.956 241.81 243.56 241.81C243.165 241.81 242.816 241.909 242.513 242.105C242.21 242.299 241.972 242.587 241.799 242.968C241.629 243.347 241.543 243.812 241.543 244.364C241.543 244.915 241.629 245.382 241.799 245.763C241.972 246.142 242.21 246.429 242.513 246.626C242.816 246.82 243.165 246.917 243.56 246.917C243.956 246.917 244.305 246.82 244.608 246.626C244.911 246.429 245.148 246.142 245.318 245.763C245.491 245.382 245.577 244.915 245.577 244.364ZM250.628 248V240.727H253.355C253.914 240.727 254.383 240.831 254.761 241.04C255.143 241.248 255.43 241.535 255.624 241.899C255.821 242.261 255.919 242.673 255.919 243.135C255.919 243.601 255.821 244.016 255.624 244.378C255.428 244.74 255.138 245.025 254.754 245.234C254.371 245.44 253.899 245.543 253.337 245.543H251.53V244.46H253.16C253.487 244.46 253.754 244.403 253.962 244.289C254.171 244.175 254.325 244.019 254.424 243.82C254.526 243.621 254.577 243.393 254.577 243.135C254.577 242.877 254.526 242.65 254.424 242.453C254.325 242.257 254.17 242.104 253.959 241.995C253.751 241.884 253.482 241.828 253.153 241.828H251.945V248H250.628ZM258.381 240.727V248H257.064V240.727H258.381ZM259.488 241.832V240.727H265.291V241.832H263.043V248H261.736V241.832H259.488ZM272.312 243.181H270.984C270.946 242.963 270.876 242.77 270.774 242.602C270.673 242.432 270.546 242.287 270.394 242.169C270.243 242.051 270.07 241.962 269.876 241.903C269.684 241.841 269.477 241.81 269.255 241.81C268.859 241.81 268.509 241.91 268.203 242.109C267.898 242.305 267.659 242.594 267.486 242.975C267.313 243.354 267.227 243.817 267.227 244.364C267.227 244.92 267.313 245.389 267.486 245.77C267.661 246.149 267.9 246.435 268.203 246.629C268.509 246.821 268.858 246.917 269.251 246.917C269.469 246.917 269.672 246.888 269.862 246.832C270.054 246.772 270.225 246.686 270.377 246.572C270.531 246.459 270.66 246.319 270.764 246.153C270.87 245.988 270.944 245.798 270.984 245.585L272.312 245.592C272.262 245.938 272.155 246.262 271.989 246.565C271.826 246.868 271.611 247.136 271.346 247.368C271.081 247.598 270.771 247.777 270.416 247.908C270.061 248.036 269.667 248.099 269.233 248.099C268.594 248.099 268.024 247.951 267.522 247.656C267.02 247.36 266.624 246.932 266.336 246.374C266.047 245.815 265.902 245.145 265.902 244.364C265.902 243.58 266.048 242.91 266.339 242.354C266.63 241.795 267.027 241.368 267.529 241.072C268.031 240.776 268.599 240.628 269.233 240.628C269.638 240.628 270.015 240.685 270.363 240.798C270.711 240.912 271.021 241.079 271.293 241.299C271.565 241.517 271.789 241.784 271.964 242.102C272.142 242.416 272.258 242.776 272.312 243.181ZM273.519 248V240.727H274.836V243.806H278.206V240.727H279.527V248H278.206V244.911H274.836V248H273.519ZM283.44 248V240.727H286.225C286.75 240.727 287.187 240.81 287.535 240.976C287.885 241.139 288.147 241.363 288.32 241.647C288.495 241.931 288.583 242.253 288.583 242.613C288.583 242.909 288.526 243.162 288.412 243.373C288.298 243.581 288.146 243.75 287.954 243.881C287.762 244.011 287.548 244.104 287.311 244.161V244.232C287.569 244.246 287.817 244.326 288.053 244.47C288.293 244.612 288.488 244.813 288.639 245.074C288.791 245.334 288.867 245.649 288.867 246.018C288.867 246.395 288.775 246.733 288.593 247.034C288.411 247.332 288.136 247.568 287.769 247.741C287.402 247.914 286.941 248 286.384 248H283.44ZM284.758 246.899H286.175C286.653 246.899 286.998 246.808 287.208 246.626C287.421 246.441 287.528 246.204 287.528 245.915C287.528 245.7 287.475 245.506 287.368 245.333C287.261 245.158 287.11 245.021 286.913 244.921C286.717 244.819 286.483 244.768 286.21 244.768H284.758V246.899ZM284.758 243.82H286.061C286.288 243.82 286.493 243.779 286.676 243.696C286.858 243.611 287.001 243.491 287.105 243.337C287.212 243.181 287.265 242.996 287.265 242.783C287.265 242.502 287.166 242.27 286.967 242.087C286.77 241.905 286.478 241.814 286.09 241.814H284.758V243.82ZM290.013 248V240.727H291.33V246.896H294.533V248H290.013ZM296.884 248H295.478L298.038 240.727H299.665L302.229 248H300.822L298.88 242.219H298.823L296.884 248ZM296.93 245.148H300.766V246.207H296.93V245.148ZM309.07 243.181H307.742C307.704 242.963 307.634 242.77 307.532 242.602C307.43 242.432 307.304 242.287 307.152 242.169C307.001 242.051 306.828 241.962 306.634 241.903C306.442 241.841 306.235 241.81 306.012 241.81C305.617 241.81 305.267 241.91 304.961 242.109C304.656 242.305 304.417 242.594 304.244 242.975C304.071 243.354 303.985 243.817 303.985 244.364C303.985 244.92 304.071 245.389 304.244 245.77C304.419 246.149 304.658 246.435 304.961 246.629C305.267 246.821 305.616 246.917 306.009 246.917C306.227 246.917 306.43 246.888 306.62 246.832C306.811 246.772 306.983 246.686 307.135 246.572C307.288 246.459 307.417 246.319 307.522 246.153C307.628 245.988 307.702 245.798 307.742 245.585L309.07 245.592C309.02 245.938 308.912 246.262 308.747 246.565C308.583 246.868 308.369 247.136 308.104 247.368C307.839 247.598 307.529 247.777 307.174 247.908C306.818 248.036 306.424 248.099 305.991 248.099C305.352 248.099 304.781 247.951 304.279 247.656C303.778 247.36 303.382 246.932 303.093 246.374C302.805 245.815 302.66 245.145 302.66 244.364C302.66 243.58 302.806 242.91 303.097 242.354C303.388 241.795 303.785 241.368 304.287 241.072C304.788 240.776 305.357 240.628 305.991 240.628C306.396 240.628 306.772 240.685 307.12 240.798C307.468 240.912 307.778 241.079 308.051 241.299C308.323 241.517 308.547 241.784 308.722 242.102C308.899 242.416 309.015 242.776 309.07 243.181ZM310.276 248V240.727H311.594V244.069H311.683L314.52 240.727H316.129L313.316 243.991L316.154 248H314.57L312.4 244.882L311.594 245.834V248H310.276Z" fill="black" fill-opacity="0.71"/>
<path d="M174.184 273H167.468V255.545H174.116C175.911 255.545 177.463 255.895 178.769 256.594C180.082 257.287 181.093 258.287 181.803 259.594C182.519 260.895 182.877 262.455 182.877 264.273C182.877 266.091 182.522 267.653 181.812 268.96C181.102 270.261 180.096 271.261 178.795 271.96C177.494 272.653 175.957 273 174.184 273ZM172.207 268.977H174.014C174.877 268.977 175.613 268.838 176.221 268.56C176.835 268.281 177.301 267.801 177.619 267.119C177.943 266.437 178.105 265.489 178.105 264.273C178.105 263.057 177.94 262.108 177.61 261.426C177.286 260.744 176.809 260.264 176.178 259.986C175.553 259.707 174.786 259.568 173.877 259.568H172.207V268.977ZM185.07 273V255.545H197.649V259.364H189.808V262.364H197.002V266.182H189.808V269.182H197.615V273H185.07ZM204.772 255.545L208.352 267.852H208.488L212.068 255.545H217.42L211.659 273H205.181L199.42 255.545H204.772ZM229.576 273.273C228.326 273.273 227.249 273.051 226.345 272.608C225.442 272.165 224.749 271.571 224.266 270.827C223.783 270.082 223.541 269.261 223.541 268.364C223.541 267.71 223.666 267.134 223.916 266.634C224.166 266.128 224.516 265.665 224.965 265.244C225.414 264.824 225.939 264.409 226.541 264L230.496 261.545C230.894 261.295 231.164 261.037 231.306 260.77C231.448 260.497 231.519 260.256 231.519 260.045C231.519 259.767 231.416 259.52 231.212 259.304C231.007 259.088 230.689 258.983 230.257 258.989C229.99 258.989 229.76 259.04 229.567 259.142C229.374 259.239 229.223 259.375 229.115 259.551C229.013 259.727 228.962 259.937 228.962 260.182C228.962 260.517 229.058 260.861 229.252 261.213C229.445 261.56 229.709 261.935 230.044 262.338C230.379 262.741 230.757 263.193 231.178 263.693L239.632 273H234.928L227.837 265.5C227.49 265.131 227.107 264.679 226.686 264.145C226.266 263.605 225.902 262.997 225.595 262.321C225.294 261.645 225.144 260.909 225.144 260.114C225.144 259.227 225.357 258.418 225.783 257.685C226.209 256.952 226.806 256.366 227.573 255.929C228.34 255.491 229.235 255.273 230.257 255.273C231.235 255.273 232.076 255.474 232.78 255.878C233.49 256.281 234.036 256.818 234.416 257.489C234.803 258.159 234.996 258.898 234.996 259.705C234.996 260.517 234.794 261.276 234.391 261.98C233.993 262.685 233.422 263.301 232.678 263.83L229.064 266.386C228.786 266.58 228.544 266.801 228.34 267.051C228.141 267.301 228.041 267.625 228.041 268.023C228.041 268.352 228.118 268.634 228.272 268.866C228.425 269.099 228.641 269.278 228.919 269.403C229.203 269.528 229.536 269.591 229.916 269.591C230.496 269.591 231.076 269.452 231.655 269.173C232.24 268.889 232.774 268.494 233.257 267.989C233.74 267.477 234.127 266.875 234.416 266.182C234.712 265.483 234.86 264.722 234.86 263.898H238.576C238.576 264.909 238.47 265.884 238.26 266.821C238.05 267.759 237.712 268.616 237.246 269.395C236.78 270.173 236.166 270.83 235.405 271.364C235.166 271.483 234.933 271.597 234.706 271.705C234.479 271.812 234.246 271.926 234.007 272.045C233.308 272.494 232.578 272.812 231.817 273C231.056 273.182 230.308 273.273 229.576 273.273ZM252.114 273H245.398V255.545H252.046C253.841 255.545 255.392 255.895 256.699 256.594C258.012 257.287 259.023 258.287 259.733 259.594C260.449 260.895 260.807 262.455 260.807 264.273C260.807 266.091 260.452 267.653 259.742 268.96C259.031 270.261 258.026 271.261 256.725 271.96C255.424 272.653 253.887 273 252.114 273ZM250.137 268.977H251.943C252.807 268.977 253.543 268.838 254.151 268.56C254.764 268.281 255.23 267.801 255.549 267.119C255.872 266.437 256.034 265.489 256.034 264.273C256.034 263.057 255.87 262.108 255.54 261.426C255.216 260.744 254.739 260.264 254.108 259.986C253.483 259.707 252.716 259.568 251.807 259.568H250.137V268.977ZM263 273V255.545H275.579V259.364H267.738V262.364H274.931V266.182H267.738V269.182H275.545V273H263ZM287.338 261C287.293 260.432 287.08 259.989 286.699 259.67C286.324 259.352 285.753 259.193 284.986 259.193C284.497 259.193 284.097 259.253 283.784 259.372C283.477 259.486 283.25 259.642 283.102 259.841C282.955 260.04 282.878 260.267 282.872 260.523C282.861 260.733 282.898 260.923 282.983 261.094C283.074 261.259 283.216 261.409 283.409 261.545C283.602 261.676 283.85 261.795 284.151 261.903C284.452 262.011 284.81 262.108 285.225 262.193L286.656 262.5C287.622 262.705 288.449 262.974 289.137 263.31C289.824 263.645 290.387 264.04 290.824 264.494C291.262 264.943 291.583 265.449 291.787 266.011C291.997 266.574 292.105 267.187 292.111 267.852C292.105 269 291.818 269.972 291.25 270.767C290.682 271.562 289.87 272.168 288.813 272.582C287.762 272.997 286.497 273.205 285.02 273.205C283.503 273.205 282.179 272.98 281.049 272.531C279.924 272.082 279.049 271.392 278.424 270.46C277.804 269.523 277.492 268.324 277.486 266.864H281.986C282.014 267.398 282.148 267.847 282.387 268.21C282.625 268.574 282.96 268.849 283.392 269.037C283.83 269.224 284.35 269.318 284.952 269.318C285.458 269.318 285.881 269.256 286.222 269.131C286.563 269.006 286.821 268.832 286.997 268.611C287.174 268.389 287.264 268.136 287.27 267.852C287.264 267.585 287.176 267.352 287.006 267.153C286.841 266.949 286.568 266.767 286.188 266.608C285.807 266.443 285.293 266.29 284.645 266.148L282.906 265.773C281.361 265.437 280.142 264.878 279.25 264.094C278.364 263.304 277.924 262.227 277.929 260.864C277.924 259.756 278.219 258.787 278.816 257.957C279.418 257.122 280.25 256.472 281.313 256.006C282.381 255.54 283.605 255.307 284.986 255.307C286.395 255.307 287.614 255.543 288.642 256.014C289.671 256.486 290.463 257.151 291.02 258.009C291.583 258.861 291.867 259.858 291.872 261H287.338ZM298.652 255.545V273H293.914V255.545H298.652ZM312.233 261.307C312.159 261.006 312.043 260.741 311.884 260.514C311.725 260.281 311.526 260.085 311.287 259.926C311.054 259.761 310.781 259.639 310.469 259.56C310.162 259.474 309.824 259.432 309.455 259.432C308.659 259.432 307.98 259.622 307.418 260.003C306.861 260.384 306.435 260.932 306.139 261.648C305.85 262.364 305.705 263.227 305.705 264.239C305.705 265.261 305.844 266.136 306.122 266.864C306.401 267.591 306.816 268.148 307.367 268.534C307.918 268.92 308.602 269.114 309.421 269.114C310.142 269.114 310.742 269.009 311.219 268.798C311.702 268.588 312.063 268.29 312.301 267.903C312.54 267.517 312.659 267.062 312.659 266.54L313.477 266.625H309.489V263.25H317.227V265.67C317.227 267.261 316.889 268.622 316.213 269.753C315.543 270.878 314.617 271.741 313.435 272.344C312.259 272.94 310.909 273.239 309.387 273.239C307.688 273.239 306.196 272.878 304.912 272.156C303.628 271.435 302.625 270.406 301.904 269.071C301.188 267.736 300.83 266.148 300.83 264.307C300.83 262.864 301.049 261.585 301.486 260.472C301.929 259.358 302.543 258.418 303.327 257.651C304.111 256.878 305.017 256.295 306.046 255.903C307.074 255.506 308.176 255.307 309.352 255.307C310.387 255.307 311.347 255.455 312.233 255.75C313.125 256.04 313.912 256.455 314.594 256.994C315.281 257.528 315.835 258.162 316.256 258.895C316.676 259.628 316.932 260.432 317.023 261.307H312.233ZM334.539 255.545V273H330.585L324.278 263.83H324.176V273H319.437V255.545H323.46L329.664 264.682H329.801V255.545H334.539Z" fill="black" fill-opacity="0.71"/>
<path d="M199.489 283.78C199.773 283.78 200.032 283.821 200.267 283.904C200.501 283.985 200.712 284.089 200.899 284.217C201.088 284.344 201.254 284.477 201.396 284.614C201.462 284.676 201.52 284.735 201.57 284.792C201.622 284.846 201.673 284.902 201.723 284.959C201.768 284.902 201.815 284.846 201.865 284.792C201.914 284.737 201.974 284.678 202.042 284.614C202.258 284.406 202.525 284.215 202.845 284.043C203.167 283.867 203.537 283.78 203.956 283.78C204.354 283.78 204.716 283.876 205.043 284.067C205.37 284.259 205.629 284.516 205.821 284.838C206.015 285.16 206.112 285.515 206.112 285.903C206.112 286.197 206.056 286.473 205.945 286.731C205.834 286.989 205.679 287.215 205.48 287.409C205.283 287.603 205.055 287.755 204.794 287.864C204.534 287.973 204.255 288.027 203.956 288.027C203.672 288.027 203.413 287.988 203.179 287.91C202.944 287.829 202.734 287.728 202.546 287.604C202.359 287.481 202.195 287.353 202.053 287.221C201.982 287.152 201.92 287.089 201.868 287.033C201.816 286.976 201.768 286.919 201.723 286.862C201.671 286.921 201.618 286.981 201.566 287.04C201.514 287.097 201.455 287.157 201.389 287.221C201.251 287.349 201.089 287.475 200.902 287.601C200.715 287.724 200.503 287.826 200.267 287.906C200.032 287.987 199.773 288.027 199.489 288.027C199.091 288.027 198.729 287.932 198.402 287.743C198.076 287.551 197.815 287.295 197.621 286.976C197.427 286.654 197.33 286.296 197.33 285.903C197.33 285.612 197.385 285.339 197.497 285.083C197.608 284.827 197.762 284.603 197.958 284.408C198.157 284.212 198.387 284.058 198.647 283.947C198.91 283.835 199.191 283.78 199.489 283.78ZM198.488 285.903C198.488 286.083 198.533 286.248 198.622 286.397C198.712 286.544 198.833 286.661 198.985 286.749C199.136 286.834 199.304 286.876 199.489 286.876C199.704 286.876 199.901 286.831 200.078 286.741C200.258 286.649 200.429 286.528 200.59 286.379C200.684 286.292 200.765 286.208 200.831 286.127C200.898 286.044 200.954 285.97 201.002 285.903C200.952 285.837 200.888 285.76 200.81 285.673C200.734 285.585 200.661 285.508 200.59 285.442C200.441 285.3 200.274 285.179 200.089 285.08C199.904 284.98 199.704 284.93 199.489 284.93C199.304 284.93 199.136 284.975 198.985 285.065C198.833 285.153 198.712 285.271 198.622 285.42C198.533 285.567 198.488 285.728 198.488 285.903ZM204.951 285.903C204.951 285.728 204.906 285.567 204.816 285.42C204.726 285.271 204.605 285.153 204.453 285.065C204.304 284.975 204.139 284.93 203.956 284.93C203.809 284.93 203.67 284.954 203.537 285.001C203.407 285.046 203.284 285.108 203.168 285.186C203.052 285.262 202.947 285.347 202.852 285.442C202.767 285.522 202.685 285.609 202.607 285.701C202.531 285.793 202.475 285.861 202.44 285.903C202.494 285.979 202.555 286.056 202.621 286.134C202.687 286.212 202.764 286.294 202.852 286.379C203.008 286.526 203.176 286.646 203.356 286.738C203.536 286.83 203.736 286.876 203.956 286.876C204.139 286.876 204.304 286.834 204.453 286.749C204.605 286.661 204.726 286.544 204.816 286.397C204.906 286.248 204.951 286.083 204.951 285.903ZM210.518 284.835V285.893H207.244V284.835H210.518ZM211.927 289V281.727H214.654C215.213 281.727 215.682 281.831 216.06 282.04C216.441 282.248 216.729 282.535 216.923 282.899C217.12 283.261 217.218 283.673 217.218 284.135C217.218 284.601 217.12 285.016 216.923 285.378C216.727 285.74 216.437 286.025 216.053 286.234C215.67 286.44 215.197 286.543 214.636 286.543H212.829V285.46H214.459C214.785 285.46 215.053 285.403 215.261 285.289C215.47 285.175 215.624 285.019 215.723 284.82C215.825 284.621 215.876 284.393 215.876 284.135C215.876 283.877 215.825 283.65 215.723 283.453C215.624 283.257 215.468 283.104 215.258 282.995C215.049 282.884 214.781 282.828 214.452 282.828H213.244V289H211.927ZM218.486 289H217.08L219.64 281.727H221.266L223.83 289H222.424L220.481 283.219H220.425L218.486 289ZM218.532 286.148H222.367V287.207H218.532V286.148ZM229.318 284.05C229.259 283.858 229.178 283.686 229.073 283.535C228.972 283.381 228.849 283.25 228.704 283.141C228.562 283.032 228.399 282.95 228.214 282.896C228.029 282.839 227.828 282.81 227.61 282.81C227.22 282.81 226.872 282.909 226.566 283.105C226.261 283.302 226.021 283.59 225.845 283.972C225.673 284.35 225.586 284.812 225.586 285.357C225.586 285.906 225.673 286.371 225.845 286.752C226.018 287.133 226.259 287.423 226.566 287.622C226.874 287.819 227.232 287.917 227.639 287.917C228.008 287.917 228.328 287.846 228.598 287.704C228.87 287.562 229.079 287.361 229.226 287.1C229.373 286.837 229.446 286.53 229.446 286.177L229.745 286.223H227.77V285.193H230.721V286.067C230.721 286.689 230.589 287.228 230.323 287.683C230.058 288.137 229.694 288.487 229.23 288.734C228.766 288.978 228.233 289.099 227.632 289.099C226.962 289.099 226.373 288.949 225.867 288.648C225.363 288.345 224.968 287.916 224.684 287.359C224.403 286.801 224.262 286.138 224.262 285.371C224.262 284.784 224.345 284.259 224.51 283.798C224.678 283.336 224.913 282.944 225.213 282.622C225.514 282.298 225.867 282.052 226.272 281.884C226.676 281.713 227.117 281.628 227.593 281.628C227.995 281.628 228.37 281.687 228.718 281.805C229.066 281.921 229.375 282.087 229.645 282.303C229.917 282.518 230.141 282.774 230.316 283.07C230.492 283.366 230.606 283.692 230.661 284.05H229.318ZM231.995 289V281.727H236.725V282.832H233.313V284.806H236.48V285.911H233.313V287.896H236.754V289H231.995ZM246.526 281.727V289H245.355L241.928 284.046H241.867V289H240.55V281.727H241.729L245.152 286.685H245.216V281.727H246.526ZM254.461 285.364C254.461 286.147 254.314 286.818 254.02 287.377C253.729 287.933 253.331 288.36 252.827 288.656C252.325 288.951 251.756 289.099 251.119 289.099C250.482 289.099 249.912 288.951 249.407 288.656C248.905 288.357 248.508 287.93 248.214 287.374C247.923 286.815 247.777 286.145 247.777 285.364C247.777 284.58 247.923 283.91 248.214 283.354C248.508 282.795 248.905 282.368 249.407 282.072C249.912 281.776 250.482 281.628 251.119 281.628C251.756 281.628 252.325 281.776 252.827 282.072C253.331 282.368 253.729 282.795 254.02 283.354C254.314 283.91 254.461 284.58 254.461 285.364ZM253.136 285.364C253.136 284.812 253.05 284.347 252.877 283.968C252.706 283.587 252.47 283.299 252.167 283.105C251.863 282.909 251.514 282.81 251.119 282.81C250.724 282.81 250.374 282.909 250.071 283.105C249.768 283.299 249.53 283.587 249.358 283.968C249.187 284.347 249.102 284.812 249.102 285.364C249.102 285.915 249.187 286.382 249.358 286.763C249.53 287.142 249.768 287.429 250.071 287.626C250.374 287.82 250.724 287.917 251.119 287.917C251.514 287.917 251.863 287.82 252.167 287.626C252.47 287.429 252.706 287.142 252.877 286.763C253.05 286.382 253.136 285.915 253.136 285.364ZM255.064 282.832V281.727H260.867V282.832H258.619V289H257.312V282.832H255.064ZM261.985 289V281.727H266.716V282.832H263.303V284.806H266.47V285.911H263.303V287.896H266.744V289H261.985ZM270.54 289V281.727H273.324C273.85 281.727 274.287 281.81 274.635 281.976C274.985 282.139 275.247 282.363 275.419 282.647C275.595 282.931 275.682 283.253 275.682 283.613C275.682 283.909 275.625 284.162 275.512 284.373C275.398 284.581 275.245 284.75 275.054 284.881C274.862 285.011 274.648 285.104 274.411 285.161V285.232C274.669 285.246 274.916 285.326 275.153 285.47C275.392 285.612 275.587 285.813 275.739 286.074C275.89 286.334 275.966 286.649 275.966 287.018C275.966 287.395 275.875 287.733 275.693 288.034C275.51 288.332 275.236 288.568 274.869 288.741C274.502 288.914 274.04 289 273.484 289H270.54ZM271.858 287.899H273.274C273.753 287.899 274.097 287.808 274.308 287.626C274.521 287.441 274.627 287.204 274.627 286.915C274.627 286.7 274.574 286.506 274.468 286.333C274.361 286.158 274.21 286.021 274.013 285.921C273.817 285.819 273.582 285.768 273.31 285.768H271.858V287.899ZM271.858 284.82H273.161C273.388 284.82 273.593 284.779 273.775 284.696C273.957 284.611 274.101 284.491 274.205 284.337C274.311 284.181 274.365 283.996 274.365 283.783C274.365 283.502 274.265 283.27 274.066 283.087C273.87 282.905 273.577 282.814 273.189 282.814H271.858V284.82ZM283.611 285.364C283.611 286.147 283.464 286.818 283.171 287.377C282.879 287.933 282.482 288.36 281.977 288.656C281.476 288.951 280.906 289.099 280.269 289.099C279.632 289.099 279.062 288.951 278.558 288.656C278.056 288.357 277.658 287.93 277.364 287.374C277.073 286.815 276.928 286.145 276.928 285.364C276.928 284.58 277.073 283.91 277.364 283.354C277.658 282.795 278.056 282.368 278.558 282.072C279.062 281.776 279.632 281.628 280.269 281.628C280.906 281.628 281.476 281.776 281.977 282.072C282.482 282.368 282.879 282.795 283.171 283.354C283.464 283.91 283.611 284.58 283.611 285.364ZM282.286 285.364C282.286 284.812 282.2 284.347 282.027 283.968C281.857 283.587 281.62 283.299 281.317 283.105C281.014 282.909 280.665 282.81 280.269 282.81C279.874 282.81 279.525 282.909 279.222 283.105C278.919 283.299 278.681 283.587 278.508 283.968C278.337 284.347 278.252 284.812 278.252 285.364C278.252 285.915 278.337 286.382 278.508 286.763C278.681 287.142 278.919 287.429 279.222 287.626C279.525 287.82 279.874 287.917 280.269 287.917C280.665 287.917 281.014 287.82 281.317 287.626C281.62 287.429 281.857 287.142 282.027 286.763C282.2 286.382 282.286 285.915 282.286 285.364ZM291.355 285.364C291.355 286.147 291.208 286.818 290.915 287.377C290.624 287.933 290.226 288.36 289.722 288.656C289.22 288.951 288.65 289.099 288.013 289.099C287.377 289.099 286.806 288.951 286.302 288.656C285.8 288.357 285.402 287.93 285.109 287.374C284.817 286.815 284.672 286.145 284.672 285.364C284.672 284.58 284.817 283.91 285.109 283.354C285.402 282.795 285.8 282.368 286.302 282.072C286.806 281.776 287.377 281.628 288.013 281.628C288.65 281.628 289.22 281.776 289.722 282.072C290.226 282.368 290.624 282.795 290.915 283.354C291.208 283.91 291.355 284.58 291.355 285.364ZM290.03 285.364C290.03 284.812 289.944 284.347 289.771 283.968C289.601 283.587 289.364 283.299 289.061 283.105C288.758 282.909 288.409 282.81 288.013 282.81C287.618 282.81 287.269 282.909 286.966 283.105C286.663 283.299 286.425 283.587 286.252 283.968C286.082 284.347 285.996 284.812 285.996 285.364C285.996 285.915 286.082 286.382 286.252 286.763C286.425 287.142 286.663 287.429 286.966 287.626C287.269 287.82 287.618 287.917 288.013 287.917C288.409 287.917 288.758 287.82 289.061 287.626C289.364 287.429 289.601 287.142 289.771 286.763C289.944 286.382 290.03 285.915 290.03 285.364ZM292.601 289V281.727H293.918V285.069H294.007L296.844 281.727H298.453L295.64 284.991L298.478 289H296.894L294.724 285.882L293.918 286.834V289H292.601ZM303.282 283.727C303.248 283.416 303.109 283.175 302.863 283.002C302.619 282.829 302.301 282.743 301.911 282.743C301.636 282.743 301.401 282.784 301.204 282.867C301.008 282.95 300.857 283.062 300.753 283.205C300.649 283.347 300.596 283.509 300.593 283.691C300.593 283.843 300.628 283.974 300.696 284.085C300.767 284.196 300.863 284.291 300.984 284.369C301.105 284.445 301.238 284.509 301.385 284.561C301.532 284.613 301.68 284.657 301.829 284.692L302.511 284.863C302.786 284.927 303.05 285.013 303.303 285.122C303.559 285.231 303.787 285.368 303.988 285.534C304.192 285.7 304.353 285.9 304.471 286.134C304.59 286.369 304.649 286.643 304.649 286.958C304.649 287.384 304.54 287.759 304.322 288.084C304.104 288.406 303.789 288.658 303.377 288.84C302.968 289.02 302.472 289.11 301.89 289.11C301.324 289.11 300.832 289.022 300.416 288.847C300.001 288.672 299.677 288.416 299.443 288.08C299.211 287.744 299.085 287.335 299.066 286.852H300.363C300.381 287.105 300.46 287.316 300.597 287.484C300.734 287.652 300.913 287.777 301.133 287.86C301.356 287.943 301.604 287.984 301.879 287.984C302.165 287.984 302.416 287.942 302.632 287.857C302.85 287.769 303.02 287.648 303.143 287.494C303.266 287.338 303.329 287.156 303.331 286.947C303.329 286.758 303.273 286.602 303.164 286.479C303.055 286.353 302.903 286.249 302.706 286.166C302.512 286.081 302.285 286.005 302.024 285.939L301.197 285.726C300.598 285.572 300.125 285.339 299.777 285.026C299.431 284.711 299.258 284.294 299.258 283.773C299.258 283.344 299.374 282.969 299.606 282.647C299.841 282.325 300.159 282.075 300.561 281.898C300.964 281.718 301.42 281.628 301.929 281.628C302.445 281.628 302.897 281.718 303.285 281.898C303.676 282.075 303.982 282.323 304.205 282.64C304.427 282.955 304.542 283.317 304.549 283.727H303.282Z" fill="black" fill-opacity="0.71"/>
<path d="M113.659 298.982L390.002 298.982" stroke="black" stroke-width="0.888563" stroke-linecap="round"/>
<path d="M114.044 316.622V315.654L116.472 311.828H117.307V313.169H116.813L115.282 315.591V315.637H118.733V316.622H114.044ZM116.836 317.645V316.327L116.858 315.898V311.828H118.011V317.645H116.836ZM122.281 314.257V315.216H119.629V314.257H122.281ZM125.411 317.724C124.987 317.724 124.609 317.651 124.278 317.505C123.949 317.358 123.688 317.155 123.497 316.898C123.308 316.638 123.21 316.339 123.205 316H124.443C124.45 316.142 124.497 316.267 124.582 316.375C124.669 316.481 124.785 316.563 124.928 316.622C125.072 316.681 125.234 316.71 125.414 316.71C125.601 316.71 125.767 316.677 125.911 316.611C126.055 316.545 126.168 316.453 126.249 316.335C126.33 316.218 126.371 316.083 126.371 315.929C126.371 315.774 126.328 315.637 126.24 315.517C126.155 315.396 126.032 315.302 125.871 315.233C125.712 315.165 125.523 315.131 125.303 315.131H124.761V314.228H125.303C125.489 314.228 125.653 314.196 125.795 314.132C125.938 314.067 126.05 313.978 126.13 313.865C126.209 313.749 126.249 313.615 126.249 313.461C126.249 313.316 126.214 313.188 126.144 313.078C126.076 312.966 125.979 312.879 125.854 312.817C125.731 312.754 125.587 312.723 125.423 312.723C125.256 312.723 125.104 312.753 124.965 312.814C124.827 312.873 124.716 312.957 124.633 313.067C124.55 313.176 124.505 313.305 124.5 313.453H123.321C123.327 313.118 123.422 312.822 123.608 312.567C123.793 312.311 124.043 312.112 124.358 311.968C124.674 311.822 125.031 311.749 125.428 311.749C125.83 311.749 126.181 311.822 126.482 311.968C126.783 312.113 127.017 312.31 127.183 312.558C127.352 312.804 127.435 313.081 127.433 313.388C127.435 313.713 127.334 313.985 127.129 314.203C126.927 314.42 126.663 314.559 126.337 314.617V314.663C126.765 314.718 127.091 314.866 127.314 315.109C127.539 315.349 127.651 315.65 127.649 316.012C127.651 316.343 127.555 316.637 127.362 316.895C127.171 317.152 126.907 317.355 126.57 317.503C126.233 317.65 125.847 317.724 125.411 317.724ZM129.558 311.828V312.442C129.558 312.616 129.524 312.794 129.456 312.976C129.39 313.156 129.301 313.326 129.189 313.487C129.077 313.646 128.955 313.781 128.823 313.893L128.289 313.578C128.383 313.428 128.467 313.263 128.539 313.081C128.612 312.899 128.649 312.688 128.649 312.448V311.828H129.558ZM130.987 311.828V312.442C130.987 312.616 130.952 312.794 130.884 312.976C130.818 313.156 130.729 313.326 130.617 313.487C130.506 313.646 130.383 313.781 130.248 313.893L129.714 313.578C129.811 313.428 129.895 313.263 129.967 313.081C130.041 312.899 130.078 312.688 130.078 312.448V311.828H130.987ZM134.772 313.282L135.573 314.808L136.394 313.282H137.635L136.371 315.464L137.669 317.645H136.433L135.573 316.137L134.727 317.645H133.477L134.772 315.464L133.523 313.282H134.772ZM140.423 317.645L142.834 312.874V312.834H140.025V311.828H144.106V312.848L141.692 317.645H140.423ZM147.678 314.257V315.216H145.025V314.257H147.678ZM151.228 311.828V317.645H149.998V312.996H149.964L148.632 313.831V312.74L150.072 311.828H151.228ZM155.155 311.556L153.28 318.519H152.238L154.112 311.556H155.155ZM155.726 317.645V316.758L157.796 314.842C157.972 314.671 158.12 314.518 158.239 314.382C158.361 314.245 158.452 314.112 158.515 313.981C158.577 313.849 158.609 313.706 158.609 313.552C158.609 313.382 158.57 313.235 158.492 313.112C158.414 312.987 158.308 312.892 158.174 312.825C158.04 312.757 157.887 312.723 157.717 312.723C157.539 312.723 157.384 312.759 157.251 312.831C157.119 312.903 157.016 313.006 156.944 313.141C156.872 313.275 156.836 313.435 156.836 313.62H155.669C155.669 313.24 155.755 312.91 155.928 312.629C156.1 312.349 156.341 312.132 156.652 311.979C156.962 311.826 157.32 311.749 157.725 311.749C158.142 311.749 158.504 311.823 158.813 311.97C159.124 312.116 159.365 312.319 159.537 312.578C159.709 312.838 159.796 313.135 159.796 313.47C159.796 313.69 159.752 313.906 159.665 314.12C159.58 314.334 159.427 314.572 159.208 314.833C158.988 315.092 158.679 315.404 158.279 315.767L157.43 316.599V316.639H159.872V317.645H155.726ZM161.788 311.828V312.442C161.788 312.616 161.754 312.794 161.686 312.976C161.62 313.156 161.531 313.326 161.419 313.487C161.308 313.646 161.185 313.781 161.053 313.893L160.519 313.578C160.614 313.428 160.697 313.263 160.769 313.081C160.843 312.899 160.88 312.688 160.88 312.448V311.828H161.788ZM163.217 311.828V312.442C163.217 312.616 163.183 312.794 163.115 312.976C163.048 313.156 162.959 313.326 162.848 313.487C162.736 313.646 162.613 313.781 162.479 313.893L161.945 313.578C162.041 313.428 162.125 313.263 162.197 313.081C162.271 312.899 162.308 312.688 162.308 312.448V311.828H163.217Z" fill="#3A2E1F"/>
<path d="M329.905 317.645H327.843V311.828H329.922C330.507 311.828 331.011 311.945 331.433 312.178C331.855 312.409 332.18 312.741 332.407 313.175C332.636 313.608 332.751 314.127 332.751 314.731C332.751 315.337 332.636 315.857 332.407 316.293C332.18 316.728 331.853 317.062 331.427 317.295C331.003 317.528 330.496 317.645 329.905 317.645ZM329.073 316.591H329.854C330.218 316.591 330.523 316.527 330.771 316.398C331.021 316.267 331.209 316.066 331.334 315.793C331.461 315.518 331.524 315.164 331.524 314.731C331.524 314.301 331.461 313.95 331.334 313.677C331.209 313.405 331.022 313.204 330.774 313.075C330.526 312.946 330.22 312.882 329.857 312.882H329.073V316.591ZM335.61 317.73C335.169 317.73 334.787 317.636 334.465 317.449C334.145 317.259 333.898 316.996 333.724 316.659C333.55 316.32 333.463 315.927 333.463 315.481C333.463 315.03 333.55 314.636 333.724 314.299C333.898 313.96 334.145 313.697 334.465 313.51C334.787 313.32 335.169 313.226 335.61 313.226C336.051 313.226 336.431 313.32 336.751 313.51C337.073 313.697 337.321 313.96 337.495 314.299C337.67 314.636 337.757 315.03 337.757 315.481C337.757 315.927 337.67 316.32 337.495 316.659C337.321 316.996 337.073 317.259 336.751 317.449C336.431 317.636 336.051 317.73 335.61 317.73ZM335.615 316.793C335.816 316.793 335.984 316.736 336.118 316.622C336.253 316.507 336.354 316.35 336.422 316.151C336.492 315.952 336.527 315.726 336.527 315.472C336.527 315.218 336.492 314.992 336.422 314.793C336.354 314.595 336.253 314.437 336.118 314.322C335.984 314.206 335.816 314.149 335.615 314.149C335.413 314.149 335.242 314.206 335.104 314.322C334.968 314.437 334.865 314.595 334.795 314.793C334.727 314.992 334.693 315.218 334.693 315.472C334.693 315.726 334.727 315.952 334.795 316.151C334.865 316.35 334.968 316.507 335.104 316.622C335.242 316.736 335.413 316.793 335.615 316.793ZM341.341 315.787V313.282H342.55V317.645H341.389V316.852H341.343C341.245 317.108 341.081 317.313 340.852 317.468C340.625 317.624 340.348 317.701 340.02 317.701C339.729 317.701 339.472 317.635 339.25 317.503C339.029 317.37 338.856 317.182 338.731 316.937C338.608 316.693 338.545 316.401 338.543 316.06V313.282H339.753V315.844C339.755 316.102 339.824 316.305 339.96 316.455C340.097 316.604 340.279 316.679 340.509 316.679C340.654 316.679 340.791 316.646 340.917 316.58C341.044 316.511 341.147 316.411 341.224 316.279C341.304 316.146 341.343 315.982 341.341 315.787ZM343.541 317.645V311.828H344.751V314.015H344.788C344.841 313.898 344.917 313.779 345.018 313.657C345.12 313.534 345.252 313.432 345.415 313.351C345.58 313.267 345.784 313.226 346.029 313.226C346.347 313.226 346.64 313.309 346.909 313.476C347.178 313.64 347.393 313.889 347.554 314.222C347.714 314.554 347.795 314.969 347.795 315.469C347.795 315.956 347.716 316.367 347.559 316.702C347.404 317.035 347.192 317.288 346.923 317.46C346.656 317.63 346.357 317.716 346.026 317.716C345.791 317.716 345.591 317.677 345.426 317.599C345.264 317.521 345.13 317.424 345.026 317.307C344.922 317.187 344.842 317.067 344.788 316.946H344.734V317.645H343.541ZM344.725 315.464C344.725 315.723 344.761 315.949 344.833 316.142C344.905 316.335 345.009 316.486 345.145 316.594C345.282 316.7 345.447 316.753 345.642 316.753C345.839 316.753 346.006 316.699 346.142 316.591C346.278 316.481 346.382 316.33 346.452 316.137C346.524 315.942 346.56 315.717 346.56 315.464C346.56 315.212 346.525 314.99 346.455 314.799C346.384 314.608 346.281 314.458 346.145 314.35C346.009 314.242 345.841 314.188 345.642 314.188C345.445 314.188 345.279 314.24 345.143 314.345C345.008 314.449 344.905 314.596 344.833 314.788C344.761 314.979 344.725 315.204 344.725 315.464ZM349.812 311.828V317.645H348.602V311.828H349.812ZM352.769 317.73C352.32 317.73 351.934 317.639 351.61 317.457C351.288 317.273 351.04 317.014 350.866 316.679C350.692 316.342 350.605 315.943 350.605 315.483C350.605 315.035 350.692 314.641 350.866 314.302C351.04 313.963 351.286 313.699 351.602 313.51C351.92 313.32 352.293 313.226 352.721 313.226C353.008 313.226 353.276 313.272 353.524 313.365C353.774 313.456 353.992 313.593 354.178 313.777C354.365 313.96 354.511 314.191 354.615 314.47C354.719 314.746 354.771 315.07 354.771 315.441V315.773H351.088V315.023H353.632C353.632 314.849 353.594 314.695 353.519 314.56C353.443 314.426 353.338 314.321 353.203 314.245C353.071 314.168 352.917 314.129 352.741 314.129C352.557 314.129 352.394 314.171 352.252 314.257C352.112 314.34 352.002 314.453 351.923 314.595C351.843 314.735 351.802 314.891 351.801 315.063V315.776C351.801 315.992 351.84 316.178 351.92 316.335C352.001 316.492 352.116 316.614 352.263 316.699C352.411 316.784 352.586 316.827 352.789 316.827C352.923 316.827 353.046 316.808 353.158 316.77C353.27 316.732 353.365 316.675 353.445 316.599C353.524 316.524 353.585 316.431 353.627 316.321L354.746 316.395C354.689 316.664 354.572 316.899 354.396 317.099C354.222 317.298 353.997 317.453 353.72 317.565C353.446 317.675 353.129 317.73 352.769 317.73ZM357.411 317.645V313.282H358.564V314.052H358.616C358.706 313.797 358.858 313.595 359.07 313.447C359.282 313.3 359.536 313.226 359.831 313.226C360.13 313.226 360.385 313.3 360.595 313.45C360.805 313.598 360.945 313.798 361.015 314.052H361.061C361.15 313.802 361.311 313.602 361.543 313.453C361.778 313.301 362.056 313.226 362.376 313.226C362.783 313.226 363.113 313.355 363.367 313.615C363.622 313.872 363.75 314.238 363.75 314.711V317.645H362.543V314.949C362.543 314.707 362.479 314.525 362.35 314.404C362.221 314.283 362.06 314.222 361.867 314.222C361.648 314.222 361.476 314.293 361.353 314.433C361.23 314.571 361.169 314.754 361.169 314.981V317.645H359.996V314.924C359.996 314.71 359.934 314.54 359.811 314.413C359.69 314.286 359.53 314.222 359.331 314.222C359.197 314.222 359.076 314.257 358.968 314.325C358.862 314.391 358.777 314.485 358.715 314.606C358.652 314.725 358.621 314.865 358.621 315.026V317.645H357.411ZM365.95 317.727C365.671 317.727 365.423 317.679 365.205 317.582C364.988 317.484 364.815 317.339 364.689 317.148C364.564 316.954 364.501 316.714 364.501 316.426C364.501 316.184 364.546 315.98 364.635 315.816C364.724 315.651 364.845 315.518 364.998 315.418C365.152 315.318 365.326 315.242 365.521 315.191C365.718 315.14 365.924 315.104 366.14 315.083C366.393 315.056 366.598 315.032 366.753 315.009C366.908 314.985 367.021 314.949 367.091 314.901C367.161 314.854 367.196 314.784 367.196 314.691V314.674C367.196 314.494 367.139 314.355 367.026 314.257C366.914 314.158 366.755 314.109 366.549 314.109C366.331 314.109 366.158 314.157 366.029 314.254C365.9 314.348 365.815 314.468 365.773 314.612L364.655 314.521C364.711 314.256 364.823 314.027 364.99 313.833C365.156 313.638 365.371 313.489 365.634 313.385C365.899 313.279 366.206 313.226 366.554 313.226C366.797 313.226 367.029 313.254 367.25 313.311C367.474 313.368 367.671 313.456 367.844 313.575C368.018 313.694 368.155 313.848 368.255 314.035C368.356 314.221 368.406 314.443 368.406 314.702V317.645H367.259V317.04H367.225C367.155 317.176 367.061 317.296 366.943 317.4C366.826 317.503 366.685 317.583 366.52 317.642C366.356 317.698 366.165 317.727 365.95 317.727ZM366.296 316.892C366.474 316.892 366.631 316.857 366.767 316.787C366.904 316.715 367.011 316.618 367.088 316.497C367.166 316.376 367.205 316.239 367.205 316.085V315.623C367.167 315.647 367.115 315.67 367.049 315.691C366.984 315.71 366.911 315.728 366.83 315.745C366.748 315.76 366.667 315.774 366.586 315.787C366.504 315.799 366.43 315.809 366.364 315.818C366.222 315.839 366.098 315.872 365.992 315.918C365.886 315.963 365.804 316.025 365.745 316.102C365.686 316.178 365.657 316.273 365.657 316.386C365.657 316.551 365.717 316.677 365.836 316.764C365.957 316.849 366.11 316.892 366.296 316.892ZM371.665 313.282V314.191H369.038V313.282H371.665ZM369.634 312.237H370.844V316.304C370.844 316.416 370.861 316.503 370.895 316.565C370.929 316.626 370.977 316.669 371.037 316.693C371.1 316.718 371.172 316.73 371.253 316.73C371.31 316.73 371.367 316.725 371.423 316.716C371.48 316.705 371.524 316.696 371.554 316.69L371.744 317.591C371.684 317.61 371.598 317.631 371.489 317.656C371.379 317.682 371.245 317.698 371.088 317.704C370.797 317.716 370.541 317.677 370.321 317.588C370.104 317.499 369.934 317.361 369.813 317.173C369.692 316.986 369.632 316.749 369.634 316.463V312.237ZM374.394 317.73C373.945 317.73 373.559 317.639 373.235 317.457C372.913 317.273 372.665 317.014 372.491 316.679C372.317 316.342 372.23 315.943 372.23 315.483C372.23 315.035 372.317 314.641 372.491 314.302C372.665 313.963 372.91 313.699 373.227 313.51C373.545 313.32 373.918 313.226 374.346 313.226C374.633 313.226 374.901 313.272 375.149 313.365C375.399 313.456 375.617 313.593 375.802 313.777C375.99 313.96 376.136 314.191 376.24 314.47C376.344 314.746 376.396 315.07 376.396 315.441V315.773H372.713V315.023H375.257C375.257 314.849 375.219 314.695 375.144 314.56C375.068 314.426 374.963 314.321 374.828 314.245C374.696 314.168 374.542 314.129 374.365 314.129C374.182 314.129 374.019 314.171 373.877 314.257C373.737 314.34 373.627 314.453 373.548 314.595C373.468 314.735 373.427 314.891 373.425 315.063V315.776C373.425 315.992 373.465 316.178 373.545 316.335C373.626 316.492 373.741 316.614 373.888 316.699C374.036 316.784 374.211 316.827 374.414 316.827C374.548 316.827 374.671 316.808 374.783 316.77C374.895 316.732 374.99 316.675 375.07 316.599C375.149 316.524 375.21 316.431 375.251 316.321L376.37 316.395C376.314 316.664 376.197 316.899 376.021 317.099C375.847 317.298 375.622 317.453 375.345 317.565C375.071 317.675 374.754 317.73 374.394 317.73ZM377.185 317.645V313.282H378.358V314.044H378.404C378.483 313.773 378.617 313.568 378.804 313.43C378.992 313.29 379.207 313.22 379.452 313.22C379.512 313.22 379.578 313.224 379.648 313.231C379.718 313.239 379.779 313.249 379.832 313.263V314.336C379.775 314.319 379.697 314.304 379.597 314.291C379.496 314.277 379.404 314.271 379.321 314.271C379.143 314.271 378.984 314.31 378.844 314.387C378.706 314.463 378.596 314.569 378.515 314.705C378.435 314.842 378.395 314.999 378.395 315.177V317.645H377.185ZM380.458 317.645V313.282H381.667V317.645H380.458ZM381.065 312.72C380.886 312.72 380.731 312.661 380.603 312.541C380.476 312.42 380.412 312.275 380.412 312.107C380.412 311.94 380.476 311.797 380.603 311.678C380.731 311.557 380.886 311.496 381.065 311.496C381.245 311.496 381.399 311.557 381.525 311.678C381.654 311.797 381.719 311.94 381.719 312.107C381.719 312.275 381.654 312.42 381.525 312.541C381.399 312.661 381.245 312.72 381.065 312.72ZM383.88 317.727C383.602 317.727 383.354 317.679 383.136 317.582C382.919 317.484 382.746 317.339 382.62 317.148C382.495 316.954 382.432 316.714 382.432 316.426C382.432 316.184 382.477 315.98 382.566 315.816C382.655 315.651 382.776 315.518 382.929 315.418C383.082 315.318 383.257 315.242 383.452 315.191C383.649 315.14 383.855 315.104 384.071 315.083C384.324 315.056 384.529 315.032 384.684 315.009C384.839 314.985 384.952 314.949 385.022 314.901C385.092 314.854 385.127 314.784 385.127 314.691V314.674C385.127 314.494 385.07 314.355 384.957 314.257C384.845 314.158 384.686 314.109 384.48 314.109C384.262 314.109 384.089 314.157 383.96 314.254C383.831 314.348 383.746 314.468 383.704 314.612L382.585 314.521C382.642 314.256 382.754 314.027 382.921 313.833C383.087 313.638 383.302 313.489 383.565 313.385C383.83 313.279 384.137 313.226 384.485 313.226C384.728 313.226 384.96 313.254 385.181 313.311C385.405 313.368 385.602 313.456 385.775 313.575C385.949 313.694 386.086 313.848 386.186 314.035C386.287 314.221 386.337 314.443 386.337 314.702V317.645H385.19V317.04H385.156C385.085 317.176 384.992 317.296 384.874 317.4C384.757 317.503 384.616 317.583 384.451 317.642C384.287 317.698 384.096 317.727 383.88 317.727ZM384.227 316.892C384.405 316.892 384.562 316.857 384.698 316.787C384.835 316.715 384.942 316.618 385.019 316.497C385.097 316.376 385.136 316.239 385.136 316.085V315.623C385.098 315.647 385.046 315.67 384.979 315.691C384.915 315.71 384.842 315.728 384.761 315.745C384.679 315.76 384.598 315.774 384.517 315.787C384.435 315.799 384.361 315.809 384.295 315.818C384.153 315.839 384.029 315.872 383.923 315.918C383.817 315.963 383.735 316.025 383.676 316.102C383.617 316.178 383.588 316.273 383.588 316.386C383.588 316.551 383.648 316.677 383.767 316.764C383.888 316.849 384.041 316.892 384.227 316.892ZM388.485 311.828V317.645H387.276V311.828H388.485Z" fill="#3A2E1F"/>
<path d="M345.308 237.309H376C379.143 237.309 381.691 239.857 381.691 243V279C381.691 282.143 379.143 284.691 376 284.691H345.308V237.309Z" stroke="black" stroke-width="0.617284"/>
<circle cx="351" cy="243.5" r="0.5" fill="#0D0D0D"/>
<circle cx="356" cy="243.5" r="0.5" fill="#0D0D0D"/>
<circle cx="361" cy="243.5" r="0.5" fill="#0D0D0D"/>
<circle cx="366" cy="243.5" r="0.5" fill="#0D0D0D"/>
<circle cx="371" cy="243.5" r="0.5" fill="#0D0D0D"/>
<circle cx="376" cy="243.5" r="0.5" fill="#0D0D0D"/>
<circle cx="351" cy="248.5" r="0.5" fill="#0D0D0D"/>
<circle cx="356" cy="248.5" r="0.5" fill="#0D0D0D"/>
<circle cx="361" cy="248.5" r="0.5" fill="#0D0D0D"/>
<circle cx="366" cy="248.5" r="0.5" fill="#0D0D0D"/>
<circle cx="371" cy="248.5" r="0.5" fill="#0D0D0D"/>
<circle cx="376" cy="248.5" r="0.5" fill="#0D0D0D"/>
<circle cx="351" cy="253.5" r="0.5" fill="#0D0D0D"/>
<circle cx="356" cy="253.5" r="0.5" fill="#0D0D0D"/>
<circle cx="361" cy="253.5" r="0.5" fill="#0D0D0D"/>
<circle cx="366" cy="253.5" r="0.5" fill="#0D0D0D"/>
<circle cx="371" cy="253.5" r="0.5" fill="#0D0D0D"/>
<circle cx="376" cy="253.5" r="0.5" fill="#0D0D0D"/>
<circle cx="351" cy="258.5" r="0.5" fill="#0D0D0D"/>
<circle cx="356" cy="258.5" r="0.5" fill="#0D0D0D"/>
<circle cx="361" cy="258.5" r="0.5" fill="#0D0D0D"/>
<circle cx="366" cy="258.5" r="0.5" fill="#0D0D0D"/>
<circle cx="371" cy="258.5" r="0.5" fill="#0D0D0D"/>
<circle cx="376" cy="258.5" r="0.5" fill="#0D0D0D"/>
<circle cx="351" cy="263.5" r="0.5" fill="#0D0D0D"/>
<circle cx="356" cy="263.5" r="0.5" fill="#0D0D0D"/>
<circle cx="361" cy="263.5" r="0.5" fill="#0D0D0D"/>
<circle cx="366" cy="263.5" r="0.5" fill="#0D0D0D"/>
<circle cx="371" cy="263.5" r="0.5" fill="#0D0D0D"/>
<circle cx="376" cy="263.5" r="0.5" fill="#0D0D0D"/>
<circle cx="351" cy="268.5" r="0.5" fill="#0D0D0D"/>
<circle cx="356" cy="268.5" r="0.5" fill="#0D0D0D"/>
<circle cx="361" cy="268.5" r="0.5" fill="#0D0D0D"/>
<circle cx="366" cy="268.5" r="0.5" fill="#0D0D0D"/>
<circle cx="371" cy="268.5" r="0.5" fill="#0D0D0D"/>
<circle cx="376" cy="268.5" r="0.5" fill="#0D0D0D"/>
<circle cx="351" cy="273.5" r="0.5" fill="#0D0D0D"/>
<circle cx="356" cy="273.5" r="0.5" fill="#0D0D0D"/>
<circle cx="361" cy="273.5" r="0.5" fill="#0D0D0D"/>
<circle cx="366" cy="273.5" r="0.5" fill="#0D0D0D"/>
<circle cx="371" cy="273.5" r="0.5" fill="#0D0D0D"/>
<circle cx="376" cy="273.5" r="0.5" fill="#0D0D0D"/>
<circle cx="351" cy="278.5" r="0.5" fill="#0D0D0D"/>
<circle cx="356" cy="278.5" r="0.5" fill="#0D0D0D"/>
<circle cx="361" cy="278.5" r="0.5" fill="#0D0D0D"/>
<circle cx="366" cy="278.5" r="0.5" fill="#0D0D0D"/>
<circle cx="371" cy="278.5" r="0.5" fill="#0D0D0D"/>
<circle cx="376" cy="278.5" r="0.5" fill="#0D0D0D"/>
</g>
</g>
</g>
<defs>
<filter id="filter0_ii_1323_3472" x="102.047" y="63.5125" width="8.45569" height="466.479" filterUnits="userSpaceOnUse" color-interpolation-filters="sRGB">
<feFlood flood-opacity="0" result="BackgroundImageFix"/>
<feBlend mode="normal" in="SourceGraphic" in2="BackgroundImageFix" result="shape"/>
<feColorMatrix in="SourceAlpha" type="matrix" values="0 0 0 0 0 0 0 0 0 0 0 0 0 0 0 0 0 0 127 0" result="hardAlpha"/>
<feOffset dx="-1.4093"/>
<feGaussianBlur stdDeviation="2.11395"/>
<feComposite in2="hardAlpha" operator="arithmetic" k2="-1" k3="1"/>
<feColorMatrix type="matrix" values="0 0 0 0 0 0 0 0 0 0 0 0 0 0 0 0 0 0 0.18 0"/>
<feBlend mode="normal" in2="shape" result="effect1_innerShadow_1323_3472"/>
<feColorMatrix in="SourceAlpha" type="matrix" values="0 0 0 0 0 0 0 0 0 0 0 0 0 0 0 0 0 0 127 0" result="hardAlpha"/>
<feOffset dx="-1.4093"/>
<feGaussianBlur stdDeviation="2.11395"/>
<feComposite in2="hardAlpha" operator="arithmetic" k2="-1" k3="1"/>
<feColorMatrix type="matrix" values="0 0 0 0 0 0 0 0 0 0 0 0 0 0 0 0 0 0 0.18 0"/>
<feBlend mode="normal" in2="effect1_innerShadow_1323_3472" result="effect2_innerShadow_1323_3472"/>
</filter>
<filter id="filter1_d_1323_3472" x="76.34" y="216.345" width="350.094" height="118.179" filterUnits="userSpaceOnUse" color-interpolation-filters="sRGB">
<feFlood flood-opacity="0" result="BackgroundImageFix"/>
<feColorMatrix in="SourceAlpha" type="matrix" values="0 0 0 0 0 0 0 0 0 0 0 0 0 0 0 0 0 0 127 0" result="hardAlpha"/>
<feOffset dy="-4.44282"/>
<feGaussianBlur stdDeviation="2.66569"/>
<feComposite in2="hardAlpha" operator="out"/>
<feColorMatrix type="matrix" values="0 0 0 0 0.00416667 0 0 0 0 0.00416667 0 0 0 0 0.00416667 0 0 0 0.25 0"/>
<feBlend mode="normal" in2="BackgroundImageFix" result="effect1_dropShadow_1323_3472"/>
<feBlend mode="normal" in="SourceGraphic" in2="effect1_dropShadow_1323_3472" result="shape"/>
</filter>
<clipPath id="clip0_1323_3472">
<rect width="504" height="365" fill="white"/>
</clipPath>
<clipPath id="clip1_1323_3472">
<path d="M95 68.8438C95 65.8994 97.3869 63.5125 100.331 63.5125H366.012C383.678 63.5125 398 77.8341 398 95.5007V496.594C398 514.261 383.678 528.582 366.012 528.582H100.331C97.387 528.582 95 526.195 95 523.251V68.8438Z" fill="white"/>
</clipPath>
</defs>
</svg>
